<svg width="500" height="500" viewBox="0 0 500 500" fill="none" xmlns="http://www.w3.org/2000/svg">
<path d="M448.13 114.62C427.27 80.32 381.23 55.38 345.41 42.62C299.96 26.48 250.11 10.54 201.41 18.44C162.51 24.76 125.01 47.08 106.71 81.99C82 129.24 95.1 190.39 67.11 235.75C53.76 257.37 32 273.58 22.28 297.06C18.7588 305.74 17.0321 315.042 17.2039 324.407C17.3758 333.772 19.4427 343.006 23.28 351.55C27.34 360.44 33.47 368.55 41.74 373.78C58.35 384.22 79.98 381.17 98.62 387.28C117.26 393.39 131.74 408.33 146.68 421.28C170.57 441.96 199.68 459.28 231.33 459.11C277.42 458.86 317.18 421.92 363.27 421.2C383.22 420.88 403.76 427.41 422.73 421.2C466.5 407 470.58 346.6 459.2 310C451.62 285.61 427.2 259.52 428.52 233.56C429.52 213.69 446.33 198.13 452.82 179.99C460.7 157.91 460.53 135 448.13 114.62Z" fill="#92E3A9"/>
<path opacity="0.7" d="M448.13 114.62C427.27 80.32 381.23 55.38 345.41 42.62C299.96 26.48 250.11 10.54 201.41 18.44C162.51 24.76 125.01 47.08 106.71 81.99C82 129.24 95.1 190.39 67.11 235.75C53.76 257.37 32 273.58 22.28 297.06C18.7588 305.74 17.0321 315.042 17.2039 324.407C17.3758 333.772 19.4427 343.006 23.28 351.55C27.34 360.44 33.47 368.55 41.74 373.78C58.35 384.22 79.98 381.17 98.62 387.28C117.26 393.39 131.74 408.33 146.68 421.28C170.57 441.96 199.68 459.28 231.33 459.11C277.42 458.86 317.18 421.92 363.27 421.2C383.22 420.88 403.76 427.41 422.73 421.2C466.5 407 470.58 346.6 459.2 310C451.62 285.61 427.2 259.52 428.52 233.56C429.52 213.69 446.33 198.13 452.82 179.99C460.7 157.91 460.53 135 448.13 114.62Z" fill="white"/>
<g opacity="0.2">
<path d="M145.84 115.48H142.32V128.24H145.84C151.11 128.24 152.75 125.86 152.75 121.65C152.75 117.44 151.11 115.48 145.84 115.48Z" stroke="black" stroke-miterlimit="10"/>
<path d="M144 67.45C135.143 67.448 126.484 70.0726 119.119 74.9919C111.753 79.9112 106.012 86.9042 102.622 95.0865C99.2307 103.269 98.3425 112.273 100.069 120.96C101.796 129.647 106.06 137.627 112.322 143.891C118.584 150.154 126.563 154.42 135.25 156.149C143.937 157.877 152.941 156.991 161.124 153.602C169.307 150.213 176.302 144.474 181.223 137.109C186.143 129.745 188.77 121.087 188.77 112.23C188.77 100.355 184.053 88.9668 175.658 80.5692C167.262 72.1717 155.875 67.4526 144 67.45ZM144 150.45C136.446 150.452 129.061 148.214 122.779 144.018C116.497 139.822 111.601 133.858 108.709 126.879C105.817 119.901 105.06 112.221 106.533 104.812C108.007 97.4028 111.644 90.5971 116.986 85.2555C122.327 79.914 129.133 76.2765 136.542 74.8033C143.951 73.33 151.631 74.0872 158.609 76.9789C165.588 79.8707 171.552 84.7671 175.748 91.049C179.944 97.3308 182.182 104.716 182.18 112.27C182.156 122.385 178.125 132.078 170.969 139.227C163.812 146.375 154.115 150.397 144 150.41V150.45Z" stroke="black" stroke-miterlimit="10"/>
<path d="M151.74 103.48C151.74 99.77 150.11 97.95 145.46 97.95H142.32V109.14H145.46C150.05 109.14 151.74 107.19 151.74 103.48Z" stroke="black" stroke-miterlimit="10"/>
<path d="M144 76.6699C136.966 76.6679 130.09 78.7518 124.241 82.658C118.392 86.5642 113.833 92.1172 111.14 98.6148C108.447 105.112 107.741 112.263 109.112 119.161C110.483 126.06 113.869 132.397 118.842 137.371C123.814 142.345 130.151 145.733 137.049 147.106C143.947 148.479 151.098 147.775 157.596 145.084C164.094 142.393 169.649 137.835 173.556 131.987C177.464 126.139 179.55 119.263 179.55 112.23C179.539 102.804 175.791 93.7666 169.127 87.1004C162.462 80.4342 153.426 76.6832 144 76.6699ZM151.12 133.07V141.07H146.6V133.41H142.4V141.06H137.88V133.4H127.79V127.4H129.79C130.225 127.335 130.626 127.128 130.932 126.811C131.237 126.495 131.43 126.087 131.48 125.65V100.25C131.43 99.813 131.237 99.4048 130.932 99.0884C130.626 98.7721 130.225 98.5652 129.79 98.4999H127.79V92.4999H137.86V84.7999H142.38V92.4999H146.58V84.8499H151.1V92.8499C158.23 93.8499 161.99 97.1899 161.99 103.01C161.99 108.15 159.07 110.66 153.7 111.77V112C159.94 112.94 163.39 116 163.39 121.52C163.39 128.18 158.77 132 151.1 133.07H151.12Z" stroke="black" stroke-miterlimit="10"/>
</g>
<g opacity="0.2">
<path d="M438.94 99V24.98L473.07 80.39L438.94 99Z" stroke="black" stroke-miterlimit="10"/>
<path d="M438.94 99L405.7 79.94L438.94 24.98" stroke="black" stroke-miterlimit="10"/>
<path d="M405.7 79.9399L438.5 65.3199L473.07 80.3899" stroke="black" stroke-miterlimit="10"/>
<path d="M406.68 85.81L439.36 104.65L472.73 85.35L439.14 130.98L406.68 85.81Z" stroke="black" stroke-miterlimit="10"/>
<path d="M439.36 104.65V130.98" stroke="black" stroke-miterlimit="10"/>
<path d="M407.55 79.9399C407.55 79.5716 407.441 79.2116 407.236 78.9055C407.031 78.5994 406.74 78.3611 406.399 78.2206C406.059 78.0801 405.684 78.0439 405.323 78.1164C404.962 78.189 404.631 78.3672 404.371 78.6283C404.112 78.8894 403.935 79.2218 403.865 79.5832C403.794 79.9447 403.832 80.319 403.974 80.6587C404.117 80.9984 404.357 81.2882 404.664 81.4913C404.971 81.6945 405.332 81.8019 405.7 81.7999C405.944 81.7999 406.185 81.7517 406.41 81.6582C406.635 81.5646 406.84 81.4274 407.012 81.2545C407.184 81.0817 407.32 80.8766 407.412 80.651C407.504 80.4254 407.551 80.1837 407.55 79.9399Z" stroke="black" stroke-miterlimit="10"/>
<path d="M440.76 98.29C440.758 97.9245 440.648 97.5678 440.443 97.2649C440.239 96.962 439.949 96.7264 439.611 96.5879C439.273 96.4494 438.901 96.4142 438.543 96.4867C438.185 96.5592 437.856 96.7362 437.598 96.9953C437.341 97.2545 437.165 97.5841 437.095 97.9427C437.024 98.3013 437.062 98.6727 437.202 99.0102C437.342 99.3477 437.579 99.636 437.883 99.8388C438.187 100.042 438.545 100.15 438.91 100.15C439.154 100.15 439.395 100.102 439.62 100.008C439.845 99.9146 440.05 99.7774 440.222 99.6046C440.394 99.4317 440.53 99.2266 440.622 99.001C440.714 98.7754 440.761 98.5337 440.76 98.29Z" stroke="black" stroke-miterlimit="10"/>
<path d="M474.92 80.39C474.922 80.0213 474.814 79.6603 474.611 79.3529C474.407 79.0455 474.117 78.8055 473.776 78.6635C473.436 78.5215 473.061 78.4838 472.7 78.5553C472.338 78.6267 472.006 78.8041 471.745 79.0648C471.484 79.3255 471.307 79.6579 471.235 80.0196C471.164 80.3813 471.202 80.7561 471.344 81.0964C471.486 81.4367 471.726 81.7271 472.033 81.9307C472.34 82.1343 472.701 82.242 473.07 82.24C473.561 82.24 474.031 82.0451 474.378 81.6981C474.725 81.3512 474.92 80.8806 474.92 80.39Z" stroke="black" stroke-miterlimit="10"/>
<path d="M440.65 25.46C440.652 25.0917 440.545 24.7311 440.341 24.4239C440.138 24.1167 439.848 23.8768 439.509 23.7344C439.169 23.5921 438.795 23.5539 438.433 23.6245C438.072 23.6951 437.739 23.8715 437.478 24.1312C437.217 24.3909 437.039 24.7223 436.966 25.0834C436.894 25.4445 436.93 25.819 437.071 26.1594C437.211 26.4999 437.45 26.791 437.756 26.9958C438.062 27.2006 438.422 27.31 438.79 27.31C439.282 27.31 439.753 27.1154 440.102 26.7687C440.45 26.4221 440.647 25.9515 440.65 25.46Z" stroke="black" stroke-miterlimit="10"/>
<path d="M440.65 103.51C440.65 103.142 440.541 102.782 440.337 102.477C440.132 102.171 439.842 101.932 439.502 101.791C439.162 101.651 438.788 101.614 438.427 101.686C438.066 101.757 437.735 101.935 437.475 102.195C437.215 102.455 437.037 102.786 436.966 103.147C436.894 103.508 436.931 103.882 437.072 104.222C437.212 104.562 437.451 104.852 437.757 105.056C438.063 105.261 438.422 105.37 438.79 105.37C439.035 105.371 439.277 105.324 439.503 105.231C439.73 105.138 439.935 105.001 440.108 104.828C440.281 104.655 440.418 104.45 440.511 104.223C440.604 103.997 440.651 103.755 440.65 103.51Z" stroke="black" stroke-miterlimit="10"/>
<path d="M440.65 65.46C440.65 65.0921 440.541 64.7325 440.337 64.4266C440.132 64.1207 439.842 63.8823 439.502 63.7416C439.162 63.6008 438.788 63.5639 438.427 63.6357C438.066 63.7075 437.735 63.8846 437.475 64.1448C437.215 64.4049 437.037 64.7363 436.966 65.0971C436.894 65.4579 436.931 65.8319 437.072 66.1718C437.212 66.5116 437.451 66.8021 437.757 67.0065C438.063 67.2109 438.422 67.32 438.79 67.32C439.035 67.3213 439.277 67.2741 439.503 67.1811C439.73 67.0881 439.935 66.9511 440.108 66.7782C440.281 66.6052 440.418 66.3996 440.511 66.1733C440.604 65.9471 440.651 65.7046 440.65 65.46Z" stroke="black" stroke-miterlimit="10"/>
<path d="M474.55 85.1299C474.548 84.7625 474.437 84.4038 474.232 84.0993C474.026 83.7947 473.735 83.5579 473.395 83.4186C473.055 83.2794 472.681 83.244 472.321 83.3169C471.961 83.3898 471.63 83.5677 471.371 83.8282C471.112 84.0887 470.936 84.4202 470.865 84.7807C470.794 85.1412 470.832 85.5147 470.973 85.854C471.114 86.1933 471.352 86.4832 471.658 86.6871C471.963 86.8911 472.323 86.9999 472.69 86.9999C472.935 86.9999 473.178 86.9515 473.404 86.8574C473.63 86.7633 473.836 86.6254 474.009 86.4516C474.182 86.2778 474.318 86.0716 474.411 85.8448C474.504 85.618 474.551 85.375 474.55 85.1299Z" stroke="black" stroke-miterlimit="10"/>
<path d="M441 131C441.002 130.631 440.894 130.27 440.691 129.963C440.487 129.655 440.197 129.416 439.856 129.274C439.516 129.131 439.141 129.094 438.78 129.165C438.418 129.237 438.086 129.414 437.825 129.675C437.564 129.936 437.387 130.268 437.315 130.63C437.244 130.991 437.282 131.366 437.424 131.706C437.566 132.047 437.805 132.337 438.113 132.541C438.42 132.744 438.781 132.852 439.15 132.85C439.641 132.85 440.111 132.655 440.458 132.308C440.805 131.961 441 131.491 441 131Z" stroke="black" stroke-miterlimit="10"/>
<path d="M408.3 85.35C408.298 84.9845 408.188 84.6279 407.983 84.3249C407.779 84.022 407.489 83.7865 407.151 83.648C406.813 83.5095 406.441 83.4743 406.083 83.5468C405.725 83.6193 405.396 83.7963 405.138 84.0554C404.881 84.3145 404.705 84.6442 404.635 85.0028C404.564 85.3613 404.601 85.7328 404.742 86.0703C404.882 86.4077 405.119 86.6961 405.423 86.8989C405.727 87.1018 406.085 87.21 406.45 87.21C406.694 87.21 406.935 87.1618 407.16 87.0682C407.385 86.9746 407.59 86.8375 407.762 86.6646C407.934 86.4918 408.07 86.2867 408.162 86.061C408.254 85.8354 408.301 85.5938 408.3 85.35Z" stroke="black" stroke-miterlimit="10"/>
</g>
<g opacity="0.2">
<path d="M41.95 391.14V346.83L62.38 380L41.95 391.14Z" stroke="black" stroke-miterlimit="10"/>
<path d="M41.95 391.14L22.04 379.73L41.95 346.83" stroke="black" stroke-miterlimit="10"/>
<path d="M22.04 379.73L41.68 370.97L62.38 380" stroke="black" stroke-miterlimit="10"/>
<path d="M22.63 383.24L42.2 394.52L62.17 382.97L42.06 410.28L22.63 383.24Z" stroke="black" stroke-miterlimit="10"/>
<path d="M42.2 394.52V410.28" stroke="black" stroke-miterlimit="10"/>
<path d="M23.15 379.73C23.1499 379.512 23.0856 379.299 22.9653 379.118C22.8451 378.936 22.674 378.794 22.4735 378.709C22.273 378.624 22.0519 378.6 21.8377 378.639C21.6236 378.679 21.4258 378.781 21.2691 378.932C21.1124 379.083 21.0037 379.277 20.9564 379.49C20.9092 379.702 20.9255 379.924 21.0034 380.128C21.0814 380.331 21.2174 380.507 21.3946 380.634C21.5718 380.76 21.7823 380.832 22 380.84C22.1491 380.845 22.2977 380.821 22.4371 380.767C22.5764 380.714 22.7035 380.633 22.8109 380.529C22.9182 380.426 23.0036 380.301 23.0618 380.164C23.1201 380.027 23.1501 379.879 23.15 379.73Z" stroke="black" stroke-miterlimit="10"/>
<path d="M41.93 391.83C42.543 391.83 43.04 391.333 43.04 390.72C43.04 390.107 42.543 389.61 41.93 389.61C41.317 389.61 40.82 390.107 40.82 390.72C40.82 391.333 41.317 391.83 41.93 391.83Z" stroke="black" stroke-miterlimit="10"/>
<path d="M63.49 380C63.49 379.78 63.4249 379.566 63.3029 379.383C63.181 379.201 63.0076 379.058 62.8048 378.974C62.6019 378.89 62.3788 378.868 62.1634 378.911C61.9481 378.954 61.7503 379.06 61.5951 379.215C61.4399 379.37 61.3341 379.568 61.2913 379.783C61.2485 379.999 61.2705 380.222 61.3545 380.425C61.4385 380.628 61.5808 380.801 61.7633 380.923C61.9458 381.045 62.1605 381.11 62.38 381.11C62.6744 381.11 62.9567 380.993 63.1649 380.785C63.373 380.577 63.49 380.294 63.49 380Z" stroke="black" stroke-miterlimit="10"/>
<path d="M43 347.11C43 346.89 42.9349 346.676 42.8129 346.493C42.691 346.311 42.5176 346.169 42.3148 346.084C42.112 346 41.8888 345.978 41.6735 346.021C41.4581 346.064 41.2603 346.17 41.1051 346.325C40.9499 346.48 40.8442 346.678 40.8013 346.893C40.7585 347.109 40.7805 347.332 40.8645 347.535C40.9485 347.738 41.0908 347.911 41.2733 348.033C41.4559 348.155 41.6705 348.22 41.89 348.22C42.1844 348.22 42.4667 348.103 42.6749 347.895C42.8831 347.687 43 347.404 43 347.11Z" stroke="black" stroke-miterlimit="10"/>
<path d="M43 393.84C42.9902 393.624 42.9176 393.416 42.7911 393.241C42.6646 393.066 42.4898 392.931 42.288 392.854C42.0862 392.777 41.8663 392.76 41.6551 392.806C41.444 392.852 41.2509 392.958 41.0994 393.112C40.948 393.267 40.8448 393.462 40.8026 393.673C40.7603 393.885 40.7808 394.105 40.8616 394.305C40.9423 394.506 41.0798 394.678 41.2571 394.802C41.4345 394.925 41.644 394.994 41.86 395C42.0126 395.004 42.1644 394.977 42.306 394.92C42.4475 394.863 42.5758 394.777 42.6828 394.669C42.7898 394.56 42.8732 394.43 42.9278 394.287C42.9823 394.145 43.0069 393.993 43 393.84Z" stroke="black" stroke-miterlimit="10"/>
<path d="M43 371.06C43 370.914 42.9713 370.77 42.9155 370.635C42.8597 370.5 42.778 370.378 42.6749 370.275C42.5718 370.172 42.4494 370.09 42.3148 370.034C42.1801 369.979 42.0358 369.95 41.89 369.95C41.7442 369.95 41.5999 369.979 41.4652 370.034C41.3306 370.09 41.2082 370.172 41.1051 370.275C41.002 370.378 40.9203 370.5 40.8645 370.635C40.8087 370.77 40.78 370.914 40.78 371.06C40.78 371.206 40.8087 371.35 40.8645 371.485C40.9203 371.619 41.002 371.742 41.1051 371.845C41.2082 371.948 41.3306 372.03 41.4652 372.085C41.5999 372.141 41.7442 372.17 41.89 372.17C42.0358 372.17 42.1801 372.141 42.3148 372.085C42.4494 372.03 42.5718 371.948 42.6749 371.845C42.778 371.742 42.8597 371.619 42.9155 371.485C42.9713 371.35 43 371.206 43 371.06Z" stroke="black" stroke-miterlimit="10"/>
<path d="M63.26 382.83C63.26 382.61 63.1949 382.396 63.0729 382.213C62.9509 382.031 62.7776 381.888 62.5748 381.804C62.3719 381.72 62.1487 381.698 61.9334 381.741C61.7181 381.784 61.5203 381.89 61.3651 382.045C61.2099 382.2 61.1041 382.398 61.0613 382.613C61.0185 382.829 61.0405 383.052 61.1245 383.255C61.2085 383.458 61.3508 383.631 61.5333 383.753C61.7158 383.875 61.9304 383.94 62.15 383.94C62.2957 383.94 62.4401 383.911 62.5748 383.855C62.7094 383.8 62.8318 383.718 62.9349 383.615C63.0379 383.512 63.1197 383.389 63.1755 383.255C63.2313 383.12 63.26 382.976 63.26 382.83Z" stroke="black" stroke-miterlimit="10"/>
<path d="M42.06 411.39C42.673 411.39 43.17 410.893 43.17 410.28C43.17 409.667 42.673 409.17 42.06 409.17C41.4469 409.17 40.95 409.667 40.95 410.28C40.95 410.893 41.4469 411.39 42.06 411.39Z" stroke="black" stroke-miterlimit="10"/>
<path d="M23.6 383C23.6 382.78 23.5349 382.566 23.4129 382.383C23.291 382.201 23.1176 382.058 22.9148 381.974C22.712 381.89 22.4888 381.868 22.2735 381.911C22.0581 381.954 21.8604 382.06 21.7051 382.215C21.5499 382.37 21.4442 382.568 21.4013 382.783C21.3585 382.999 21.3805 383.222 21.4645 383.425C21.5485 383.628 21.6908 383.801 21.8733 383.923C22.0559 384.045 22.2705 384.11 22.49 384.11C22.7844 384.11 23.0667 383.993 23.2749 383.785C23.4831 383.577 23.6 383.294 23.6 383Z" stroke="black" stroke-miterlimit="10"/>
</g>
<path opacity="0.2" d="M456.36 208.91C454.36 208.75 452.36 208.52 450.84 207.34C450.062 206.739 449.453 205.947 449.071 205.041C448.689 204.136 448.548 203.147 448.66 202.17C448.793 201.196 449.17 200.271 449.756 199.481C450.341 198.691 451.117 198.061 452.01 197.65C453.67 196.9 455.55 196.97 457.35 196.73C460.533 196.312 463.509 194.922 465.873 192.749C468.236 190.576 469.871 187.727 470.554 184.59C471.237 181.453 470.935 178.182 469.689 175.223C468.443 172.264 466.315 169.762 463.593 168.059C460.872 166.355 457.692 165.533 454.486 165.705C451.28 165.877 448.206 167.034 445.682 169.019C443.159 171.004 441.31 173.719 440.388 176.794C439.466 179.869 439.515 183.154 440.53 186.2C441.2 188.2 442.28 190.1 442.85 192.2C443.42 194.3 443.36 196.65 441.98 198.27C439.8 200.79 435.57 200.07 432.91 198.06C430.25 196.05 428.42 193.11 425.77 191.06C423.891 189.694 421.715 188.793 419.42 188.431C417.126 188.069 414.778 188.258 412.57 188.98C400.44 192.91 397.63 209.79 408.51 216.98C411.543 218.875 415.124 219.698 418.681 219.319C422.237 218.941 425.564 217.381 428.13 214.89C429.84 213.15 431.13 211.01 432.95 209.38C434.77 207.75 437.4 206.65 439.65 207.59C442.22 208.65 443.2 211.88 442.93 214.65C442.66 217.42 441.48 220.03 441.08 222.78C440.728 225.469 441.098 228.204 442.153 230.703C443.207 233.202 444.908 235.376 447.08 237C449.293 238.569 451.871 239.546 454.568 239.839C457.265 240.131 459.992 239.729 462.49 238.67C465.513 237.295 468.039 235.021 469.721 232.157C471.404 229.293 472.161 225.98 471.89 222.67C471.469 219.37 470.005 216.29 467.712 213.88C465.418 211.47 462.415 209.855 459.14 209.27C458.26 209.05 457.31 209 456.36 208.91Z" stroke="black" stroke-miterlimit="10"/>
<path opacity="0.2" d="M74.7 55C73.3318 55.0074 71.9897 54.6259 70.83 53.9C70.2868 53.4781 69.8616 52.9234 69.5953 52.2893C69.3291 51.6552 69.2308 50.9631 69.31 50.28C69.4061 49.5974 69.6714 48.9498 70.0819 48.3961C70.4924 47.8424 71.0349 47.4003 71.66 47.11C72.8698 46.7194 74.1292 46.5039 75.4 46.47C77.6126 46.1358 79.6743 45.1466 81.3195 43.6298C82.9646 42.113 84.1177 40.1382 84.63 37.96C84.9894 36.3181 84.9647 34.6153 84.5576 32.9846C84.1506 31.3538 83.3722 29.8392 82.2833 28.5588C81.1944 27.2784 79.8244 26.2669 78.2802 25.6033C76.736 24.9396 75.0593 24.6417 73.381 24.7328C71.7027 24.8239 70.0681 25.3016 68.6048 26.1285C67.1415 26.9554 65.8891 28.1093 64.9452 29.5C64.0013 30.8907 63.3915 32.4807 63.1634 34.146C62.9352 35.8112 63.0949 37.5066 63.63 39.1C64.1 40.51 64.86 41.82 65.26 43.26C65.5049 43.9656 65.5773 44.7197 65.4711 45.459C65.365 46.1984 65.0835 46.9016 64.65 47.51C63.13 49.28 60.16 48.77 58.3 47.37C56.44 45.97 55.15 43.9 53.3 42.49C51.9811 41.5177 50.4487 40.8752 48.8309 40.616C47.213 40.3568 45.5566 40.4884 44 41C35.51 43.75 33.54 55.57 41.16 60.59C43.2864 61.9116 45.7934 62.4848 48.2829 62.2185C50.7723 61.9521 53.1014 60.8615 54.9 59.12C56.1 57.9 57 56.41 58.27 55.26C59.54 54.11 61.42 53.34 63 54C64.8 54.75 65.49 57 65.3 59C65.11 61 64.3 62.76 64 64.69C63.7477 66.5817 64.0059 68.5064 64.7479 70.2648C65.4899 72.0231 66.6887 73.5509 68.22 74.69C69.7773 75.7706 71.5841 76.4369 73.4702 76.6258C75.3562 76.8148 77.2593 76.5202 79 75.77C81.1254 74.8092 82.901 73.2137 84.0829 71.2028C85.2647 69.1919 85.7947 66.8643 85.6 64.54C85.304 62.2294 84.2783 60.0737 82.6721 58.3866C81.066 56.6995 78.9632 55.5691 76.67 55.16C76 55.06 75.36 55 74.7 55Z" stroke="black" stroke-miterlimit="10"/>
<path d="M420.39 257.38L436.37 410.52" stroke="#263238" stroke-width="2" stroke-miterlimit="10"/>
<path d="M433.8 381.21L426.55 373.56" stroke="#263238" stroke-width="2" stroke-miterlimit="10"/>
<path d="M428.75 375.85C428.736 374.679 428.472 373.524 427.976 372.463C427.479 371.402 426.761 370.46 425.87 369.7C424.01 368.04 414.22 363.93 413.29 367.37C412.28 371.12 422.3 378.49 428.75 375.85Z" fill="#92E3A9" stroke="#263238" stroke-miterlimit="10"/>
<path d="M428.75 375.85L419.43 370.04" stroke="#263238" stroke-width="0.5" stroke-miterlimit="10"/>
<path d="M435.61 398.63L428.37 390.97" stroke="#263238" stroke-width="2" stroke-miterlimit="10"/>
<path d="M430.57 393.27C430.557 392.098 430.291 390.942 429.793 389.881C429.294 388.82 428.574 387.879 427.68 387.12C425.83 385.46 416.04 381.34 415.11 384.79C414.1 388.54 424.12 395.9 430.57 393.27Z" fill="#92E3A9" stroke="#263238" stroke-miterlimit="10"/>
<path d="M430.57 393.27L421.25 387.46" stroke="#263238" stroke-width="0.5" stroke-miterlimit="10"/>
<path d="M429.36 338.71L422.11 331.06" stroke="#263238" stroke-width="2" stroke-miterlimit="10"/>
<path d="M424.32 333.35C424.303 332.18 424.037 331.027 423.538 329.968C423.04 328.909 422.321 327.969 421.43 327.21C419.57 325.54 409.78 321.43 408.86 324.87C407.85 328.62 417.86 336 424.32 333.35Z" fill="#92E3A9" stroke="#263238" stroke-miterlimit="10"/>
<path d="M424.32 333.35L415 327.54" stroke="#263238" stroke-width="0.5" stroke-miterlimit="10"/>
<path d="M431.18 356.13L423.93 348.47" stroke="#263238" stroke-width="2" stroke-miterlimit="10"/>
<path d="M426.13 350.77C426.117 349.599 425.853 348.444 425.357 347.383C424.86 346.322 424.141 345.38 423.25 344.62C421.39 342.96 411.6 338.84 410.67 342.29C409.66 346 419.68 353.4 426.13 350.77Z" fill="#92E3A9" stroke="#263238" stroke-miterlimit="10"/>
<path d="M426.13 350.77L416.82 344.96" stroke="#263238" stroke-width="0.5" stroke-miterlimit="10"/>
<path d="M426.41 310.42L419.16 302.77" stroke="#263238" stroke-width="2" stroke-miterlimit="10"/>
<path d="M421.36 305.06C421.347 303.889 421.083 302.734 420.587 301.673C420.09 300.612 419.371 299.67 418.48 298.91C416.62 297.25 406.83 293.14 405.9 296.58C404.89 300.33 414.91 307.69 421.36 305.06Z" fill="#92E3A9" stroke="#263238" stroke-miterlimit="10"/>
<path d="M421.36 305.06L412.05 299.25" stroke="#263238" stroke-width="0.5" stroke-miterlimit="10"/>
<path d="M423.44 282L416.2 274.35" stroke="#263238" stroke-width="2" stroke-miterlimit="10"/>
<path d="M418.4 276.64C418.383 275.47 418.117 274.317 417.618 273.258C417.12 272.199 416.401 271.259 415.51 270.5C413.65 268.84 403.87 264.72 402.94 268.17C401.93 271.92 412 279.28 418.4 276.64Z" fill="#92E3A9" stroke="#263238" stroke-miterlimit="10"/>
<path d="M418.4 276.64L409.08 270.84" stroke="#263238" stroke-width="0.5" stroke-miterlimit="10"/>
<path d="M432.58 370.91L438.09 361.92" stroke="#263238" stroke-width="2" stroke-miterlimit="10"/>
<path d="M436.41 364.62C436.183 363.467 436.208 362.279 436.483 361.136C436.757 359.994 437.275 358.924 438 358C439.48 356 448.2 349.94 449.82 353.12C451.54 356.59 443.26 365.87 436.41 364.62Z" fill="#92E3A9" stroke="#263238" stroke-miterlimit="10"/>
<path d="M436.41 364.62L444.8 356.6" stroke="#263238" stroke-width="0.5" stroke-miterlimit="10"/>
<path d="M427.79 325.07L433.3 316.09" stroke="#263238" stroke-width="2" stroke-miterlimit="10"/>
<path d="M431.62 318.79C431.393 317.641 431.414 316.456 431.684 315.316C431.953 314.176 432.463 313.106 433.18 312.18C434.65 310.18 443.38 304.12 445 307.3C446.76 310.76 438.48 320 431.62 318.79Z" fill="#92E3A9" stroke="#263238" stroke-miterlimit="10"/>
<path d="M431.62 318.79L440.01 310.77" stroke="#263238" stroke-width="0.5" stroke-miterlimit="10"/>
<path d="M425.69 304.93L431.2 295.95" stroke="#263238" stroke-width="2" stroke-miterlimit="10"/>
<path d="M429.52 298.65C429.293 297.501 429.313 296.317 429.581 295.178C429.848 294.038 430.356 292.968 431.07 292.04C432.55 290.04 441.28 283.98 442.9 287.16C444.66 290.62 436.38 299.89 429.52 298.65Z" fill="#92E3A9" stroke="#263238" stroke-miterlimit="10"/>
<path d="M429.52 298.65L437.91 290.63" stroke="#263238" stroke-width="0.5" stroke-miterlimit="10"/>
<path d="M422.61 275.41L428.12 266.42" stroke="#263238" stroke-width="2" stroke-miterlimit="10"/>
<path d="M426.44 269.12C426.213 267.971 426.233 266.787 426.501 265.647C426.768 264.508 427.276 263.438 427.99 262.51C429.47 260.51 438.2 254.45 439.82 257.63C441.58 261.09 433.3 270.37 426.44 269.12Z" fill="#92E3A9" stroke="#263238" stroke-miterlimit="10"/>
<path d="M426.44 269.12L434.83 261.1" stroke="#263238" stroke-width="0.5" stroke-miterlimit="10"/>
<path d="M420.25 256.53C420.023 255.381 420.044 254.196 420.314 253.056C420.583 251.916 421.093 250.846 421.81 249.92C423.28 247.92 432.01 241.86 433.63 245.04C435.39 248.5 427.11 257.77 420.25 256.53Z" fill="#92E3A9" stroke="#263238" stroke-miterlimit="10"/>
<path d="M420.25 256.53L428.64 248.51" stroke="#263238" stroke-width="0.5" stroke-miterlimit="10"/>
<path d="M420.74 256.87C419.574 256.978 418.399 256.835 417.293 256.45C416.187 256.065 415.177 255.448 414.33 254.64C412.49 252.96 407.39 243.64 410.72 242.37C414.35 241 422.7 250.18 420.74 256.87Z" fill="#92E3A9" stroke="#263238" stroke-miterlimit="10"/>
<path d="M420.74 256.87L413.65 247.69" stroke="#263238" stroke-width="0.5" stroke-miterlimit="10"/>
<path d="M462.54 278.47L446.65 431.62" stroke="#263238" stroke-width="2" stroke-miterlimit="10"/>
<path d="M450.16 402.41L444.65 393.43" stroke="#263238" stroke-width="2" stroke-miterlimit="10"/>
<path d="M446.33 396.12C446.557 394.972 446.535 393.789 446.266 392.651C445.997 391.512 445.487 390.445 444.77 389.52C443.3 387.52 434.57 381.46 432.95 384.64C431.19 388.11 439.48 397.37 446.33 396.12Z" fill="#92E3A9" stroke="#263238" stroke-miterlimit="10"/>
<path d="M446.33 396.12L438.41 388.52" stroke="#263238" stroke-width="0.5" stroke-miterlimit="10"/>
<path d="M454.57 359.9L449.06 350.92" stroke="#263238" stroke-width="2" stroke-miterlimit="10"/>
<path d="M450.74 353.62C450.967 352.471 450.946 351.286 450.677 350.146C450.407 349.006 449.897 347.936 449.18 347.01C447.71 345.01 438.98 338.96 437.36 342.14C435.6 345.6 443.89 354.87 450.74 353.62Z" fill="#92E3A9" stroke="#263238" stroke-miterlimit="10"/>
<path d="M450.74 353.62L442.82 346.02" stroke="#263238" stroke-width="0.5" stroke-miterlimit="10"/>
<path d="M452.77 377.32L447.25 368.34" stroke="#263238" stroke-width="2" stroke-miterlimit="10"/>
<path d="M448.93 371C449.157 369.851 449.137 368.667 448.869 367.527C448.602 366.387 448.094 365.318 447.38 364.39C445.9 362.39 437.17 356.34 435.55 359.52C433.79 363 442.08 372.29 448.93 371Z" fill="#92E3A9" stroke="#263238" stroke-miterlimit="10"/>
<path d="M448.93 371.04L441.01 363.44" stroke="#263238" stroke-width="0.5" stroke-miterlimit="10"/>
<path d="M457.51 331.61L452 322.63" stroke="#263238" stroke-width="2" stroke-miterlimit="10"/>
<path d="M453.68 325.33C453.907 324.181 453.886 322.996 453.616 321.856C453.347 320.716 452.837 319.646 452.12 318.72C450.64 316.72 441.91 310.67 440.29 313.85C438.53 317.31 446.82 326.58 453.68 325.33Z" fill="#92E3A9" stroke="#263238" stroke-miterlimit="10"/>
<path d="M453.68 325.33L445.75 317.73" stroke="#263238" stroke-width="0.5" stroke-miterlimit="10"/>
<path d="M460.46 303.19L454.94 294.21" stroke="#263238" stroke-width="2" stroke-miterlimit="10"/>
<path d="M456.63 296.91C456.857 295.761 456.836 294.576 456.567 293.436C456.297 292.296 455.787 291.226 455.07 290.3C453.59 288.3 444.86 282.25 443.24 285.43C441.48 288.89 449.77 298.16 456.63 296.91Z" fill="#92E3A9" stroke="#263238" stroke-miterlimit="10"/>
<path d="M456.63 296.91L448.7 289.31" stroke="#263238" stroke-width="0.5" stroke-miterlimit="10"/>
<path d="M451.09 392.07L458.33 384.42" stroke="#263238" stroke-width="2" stroke-miterlimit="10"/>
<path d="M456.13 386.71C456.146 385.539 456.411 384.385 456.908 383.325C457.404 382.264 458.121 381.322 459.01 380.56C460.87 378.9 470.66 374.78 471.59 378.22C472.6 382 462.59 389.34 456.13 386.71Z" fill="#92E3A9" stroke="#263238" stroke-miterlimit="10"/>
<path d="M456.13 386.71L466 380.59" stroke="#263238" stroke-width="0.5" stroke-miterlimit="10"/>
<path d="M455.85 346.24L463.09 338.58" stroke="#263238" stroke-width="2" stroke-miterlimit="10"/>
<path d="M460.89 340.87C460.904 339.7 461.168 338.547 461.665 337.488C462.161 336.429 462.879 335.488 463.77 334.73C465.63 333.07 475.41 328.94 476.34 332.39C477.36 336.14 467.34 343.51 460.89 340.87Z" fill="#92E3A9" stroke="#263238" stroke-miterlimit="10"/>
<path d="M460.89 340.87L470.75 334.75" stroke="#263238" stroke-width="0.5" stroke-miterlimit="10"/>
<path d="M457.94 326.1L465.18 318.44" stroke="#263238" stroke-width="2" stroke-miterlimit="10"/>
<path d="M463 320.73C463.014 319.56 463.278 318.407 463.775 317.348C464.271 316.289 464.989 315.348 465.88 314.59C467.74 312.92 477.52 308.8 478.46 312.25C479.45 316 469.43 323.36 463 320.73Z" fill="#92E3A9" stroke="#263238" stroke-miterlimit="10"/>
<path d="M462.98 320.73L472.84 314.61" stroke="#263238" stroke-width="0.5" stroke-miterlimit="10"/>
<path d="M461 296.57L468.24 288.91" stroke="#263238" stroke-width="2" stroke-miterlimit="10"/>
<path d="M466 291.2C466.016 290.031 466.282 288.878 466.778 287.82C467.275 286.761 467.991 285.82 468.88 285.06C470.74 283.39 480.53 279.27 481.46 282.72C482.51 286.47 472.5 293.84 466 291.2Z" fill="#92E3A9" stroke="#263238" stroke-miterlimit="10"/>
<path d="M466.04 291.2L475.91 285.08" stroke="#263238" stroke-width="0.5" stroke-miterlimit="10"/>
<path d="M462.59 277.61C462.603 276.439 462.867 275.284 463.363 274.223C463.86 273.162 464.579 272.22 465.47 271.46C467.32 269.8 477.11 265.67 478.04 269.12C479.05 272.87 469 280.24 462.59 277.61Z" fill="#92E3A9" stroke="#263238" stroke-miterlimit="10"/>
<path d="M462.59 277.61L472.45 271.49" stroke="#263238" stroke-width="0.5" stroke-miterlimit="10"/>
<path d="M463 278.05C461.837 277.913 460.717 277.529 459.715 276.923C458.713 276.318 457.852 275.505 457.19 274.54C455.73 272.54 452.66 262.35 456.19 261.79C460 261.17 466.28 271.9 463 278.05Z" fill="#92E3A9" stroke="#263238" stroke-miterlimit="10"/>
<path d="M462.99 278.05L457.94 267.6" stroke="#263238" stroke-width="0.5" stroke-miterlimit="10"/>
<path d="M444.33 216.1V409.77" stroke="#263238" stroke-width="2" stroke-miterlimit="10"/>
<path d="M444.48 380.65L438.07 372.29" stroke="#263238" stroke-width="2" stroke-miterlimit="10"/>
<path d="M440 374.8C440.108 373.634 439.965 372.459 439.58 371.353C439.196 370.247 438.578 369.237 437.77 368.39C436.1 366.54 426.77 361.39 425.51 364.76C424.13 368.39 433.33 376.75 440 374.8Z" fill="#92E3A9" stroke="#263238" stroke-miterlimit="10"/>
<path d="M440.02 374.8L431.36 368.06" stroke="#263238" stroke-width="0.5" stroke-miterlimit="10"/>
<path d="M444.48 344.26L438.07 335.89" stroke="#263238" stroke-width="2" stroke-miterlimit="10"/>
<path d="M440 338.4C440.108 337.234 439.965 336.059 439.58 334.953C439.196 333.847 438.578 332.837 437.77 331.99C436.1 330.15 426.77 324.99 425.51 328.37C424.13 332 433.33 340.35 440 338.4Z" fill="#92E3A9" stroke="#263238" stroke-miterlimit="10"/>
<path d="M440.02 338.4L431.36 331.66" stroke="#263238" stroke-width="0.5" stroke-miterlimit="10"/>
<path d="M444.48 301.53L438.07 293.16" stroke="#263238" stroke-width="2" stroke-miterlimit="10"/>
<path d="M440 295.67C440.108 294.504 439.965 293.329 439.58 292.223C439.196 291.117 438.578 290.107 437.77 289.26C436.1 287.42 426.77 282.26 425.51 285.64C424.13 289.26 433.33 297.62 440 295.67Z" fill="#92E3A9" stroke="#263238" stroke-miterlimit="10"/>
<path d="M440.02 295.67L431.36 288.93" stroke="#263238" stroke-width="0.5" stroke-miterlimit="10"/>
<path d="M444.48 273.08L438.07 264.72" stroke="#263238" stroke-width="2" stroke-miterlimit="10"/>
<path d="M440 267.23C440.108 266.064 439.965 264.889 439.58 263.783C439.196 262.677 438.578 261.667 437.77 260.82C436.1 258.97 426.77 253.82 425.51 257.19C424.13 260.82 433.33 269.18 440 267.23Z" fill="#92E3A9" stroke="#263238" stroke-miterlimit="10"/>
<path d="M440.02 267.23L431.36 260.48" stroke="#263238" stroke-width="0.5" stroke-miterlimit="10"/>
<path d="M444.48 244.51L438.07 236.15" stroke="#263238" stroke-width="2" stroke-miterlimit="10"/>
<path d="M440 238.66C440.108 237.494 439.965 236.319 439.58 235.213C439.196 234.107 438.578 233.097 437.77 232.25C436.1 230.4 426.77 225.25 425.51 228.62C424.13 232.25 433.33 240.61 440 238.66Z" fill="#92E3A9" stroke="#263238" stroke-miterlimit="10"/>
<path d="M440.02 238.66L431.36 231.92" stroke="#263238" stroke-width="0.5" stroke-miterlimit="10"/>
<path d="M444.34 391.77L450.75 383.4" stroke="#263238" stroke-width="2" stroke-miterlimit="10"/>
<path d="M448.8 385.91C448.691 384.747 448.831 383.573 449.211 382.468C449.59 381.363 450.2 380.351 451 379.5C452.68 377.65 462 372.5 463.27 375.88C464.69 379.5 455.49 387.86 448.8 385.91Z" fill="#92E3A9" stroke="#263238" stroke-miterlimit="10"/>
<path d="M448.8 385.91L457.98 378.81" stroke="#263238" stroke-width="0.5" stroke-miterlimit="10"/>
<path d="M444.34 333.88L450.75 325.52" stroke="#263238" stroke-width="2" stroke-miterlimit="10"/>
<path d="M448.8 328C448.695 326.834 448.839 325.66 449.223 324.554C449.608 323.449 450.224 322.438 451.03 321.59C452.71 319.74 462.03 314.59 463.3 317.96C464.69 321.62 455.49 330 448.8 328Z" fill="#92E3A9" stroke="#263238" stroke-miterlimit="10"/>
<path d="M448.8 328.03L457.98 320.92" stroke="#263238" stroke-width="0.5" stroke-miterlimit="10"/>
<path d="M444.34 305.31L450.75 296.95" stroke="#263238" stroke-width="2" stroke-miterlimit="10"/>
<path d="M448.8 299.46C448.695 298.294 448.839 297.12 449.223 296.014C449.608 294.909 450.224 293.898 451.03 293.05C452.71 291.2 462.03 286.05 463.3 289.42C464.69 293.05 455.49 301.41 448.8 299.46Z" fill="#92E3A9" stroke="#263238" stroke-miterlimit="10"/>
<path d="M448.8 299.46L457.98 292.35" stroke="#263238" stroke-width="0.5" stroke-miterlimit="10"/>
<path d="M444.34 267.55L450.75 259.19" stroke="#263238" stroke-width="2" stroke-miterlimit="10"/>
<path d="M448.8 261.7C448.695 260.533 448.84 259.357 449.224 258.25C449.609 257.143 450.224 256.131 451.03 255.28C452.71 253.44 462.03 248.33 463.3 251.66C464.69 255.28 455.49 263.65 448.8 261.7Z" fill="#92E3A9" stroke="#263238" stroke-miterlimit="10"/>
<path d="M448.8 261.7L457.98 254.59" stroke="#263238" stroke-width="0.5" stroke-miterlimit="10"/>
<path d="M444.34 237.86L450.75 229.5" stroke="#263238" stroke-width="2" stroke-miterlimit="10"/>
<path d="M448.8 232C448.692 230.838 448.832 229.667 449.212 228.563C449.591 227.46 450.201 226.45 451 225.6C452.68 223.75 462 218.6 463.27 221.97C464.69 225.6 455.49 234 448.8 232Z" fill="#92E3A9" stroke="#263238" stroke-miterlimit="10"/>
<path d="M448.8 232.01L457.98 224.9" stroke="#263238" stroke-width="0.5" stroke-miterlimit="10"/>
<path d="M444 218.84C443.892 217.674 444.035 216.499 444.42 215.393C444.804 214.287 445.422 213.277 446.23 212.43C447.91 210.59 457.23 205.43 458.5 208.81C459.85 212.43 450.65 220.79 444 218.84Z" fill="#92E3A9" stroke="#263238" stroke-miterlimit="10"/>
<path d="M443.96 218.84L453.14 211.74" stroke="#263238" stroke-width="0.5" stroke-miterlimit="10"/>
<path d="M444.41 219.24C443.238 219.224 442.083 218.958 441.023 218.459C439.962 217.961 439.02 217.242 438.26 216.35C436.61 214.48 432.5 204.69 435.95 203.77C439.7 202.76 447.05 212.79 444.41 219.24Z" fill="#92E3A9" stroke="#263238" stroke-miterlimit="10"/>
<path d="M444.41 219.24L438.3 209.36" stroke="#263238" stroke-width="0.5" stroke-miterlimit="10"/>
<path d="M452.3 460H431.79L429.22 408.2H454.86L452.3 460Z" fill="#263238" stroke="#263238" stroke-miterlimit="10"/>
<path d="M386.6 16.34H154.35V450.84H386.6V16.34Z" fill="#263238"/>
<path d="M381.37 139.75H159.59V260.59H381.37V139.75Z" fill="#263238"/>
<path opacity="0.15" d="M381.37 139.75H159.59V260.59H381.37V139.75Z" fill="white"/>
<path d="M381.37 270.87H159.59V320.58H381.37V270.87Z" fill="#263238"/>
<path opacity="0.15" d="M381.37 270.87H159.59V320.58H381.37V270.87Z" fill="white"/>
<path d="M381.37 330.86H159.59V380.57H381.37V330.86Z" fill="#263238"/>
<path opacity="0.15" d="M381.37 330.86H159.59V380.57H381.37V330.86Z" fill="white"/>
<path d="M381.37 390.85H159.59V440.56H381.37V390.85Z" fill="#263238"/>
<path opacity="0.15" d="M381.37 390.85H159.59V440.56H381.37V390.85Z" fill="white"/>
<path d="M386.6 16.34H154.35V132.89H386.6V16.34Z" fill="#92E3A9"/>
<path d="M262.26 207L256.77 206.42C256.927 204.929 257.004 203.43 257 201.93C256.987 190.506 252.443 179.553 244.365 171.475C236.287 163.397 225.334 158.853 213.91 158.84C212.142 158.839 210.375 158.95 208.62 159.17L207.94 153.69C209.931 153.445 211.934 153.322 213.94 153.32C226.828 153.333 239.185 158.459 248.298 167.572C257.411 176.685 262.537 189.042 262.55 201.93C262.539 203.624 262.442 205.316 262.26 207Z" fill="white"/>
<path d="M249.61 234.87L245.56 231.13C251.894 224.322 255.831 215.631 256.77 206.38L262.26 206.94C261.204 217.381 256.762 227.19 249.61 234.87Z" fill="#919191"/>
<path d="M213.91 250.49C207.205 250.481 200.574 249.09 194.431 246.402C188.289 243.714 182.767 239.789 178.21 234.87L182.27 231.13C186.305 235.494 191.2 238.976 196.646 241.358C202.092 243.739 207.971 244.969 213.915 244.969C219.859 244.969 225.738 243.739 231.184 241.358C236.63 238.976 241.525 235.494 245.56 231.13L249.61 234.87C245.055 239.79 239.533 243.717 233.39 246.405C227.247 249.092 220.615 250.483 213.91 250.49Z" fill="#263238"/>
<path d="M178.21 234.87C172.146 228.301 168.01 220.188 166.257 211.421C164.504 202.654 165.203 193.574 168.275 185.178C171.348 176.783 176.676 169.397 183.674 163.833C190.672 158.269 199.068 154.742 207.94 153.64L208.62 159.12C200.755 160.095 193.312 163.221 187.108 168.152C180.905 173.084 176.181 179.631 173.458 187.073C170.734 194.516 170.116 202.565 171.67 210.336C173.225 218.107 176.893 225.298 182.27 231.12L178.21 234.87Z" fill="#92E3A9"/>
<path d="M308.31 159.09C308.312 158.271 308.071 157.469 307.617 156.787C307.163 156.105 306.518 155.573 305.761 155.258C305.005 154.943 304.172 154.86 303.368 155.018C302.565 155.177 301.826 155.57 301.246 156.149C300.666 156.728 300.271 157.465 300.11 158.269C299.95 159.072 300.031 159.905 300.344 160.662C300.657 161.419 301.188 162.066 301.869 162.522C302.55 162.977 303.351 163.22 304.17 163.22C305.266 163.22 306.318 162.785 307.094 162.011C307.87 161.237 308.307 160.186 308.31 159.09Z" fill="#92E3A9"/>
<path d="M321.37 157.46V158.62H318.54V162.74H322V163.91H317.24V152.33H322V153.51H318.53V157.51L321.37 157.46Z" fill="white"/>
<path d="M324.9 163.91V153.51H322.76V152.33H328.32V153.51H326.19V163.91H324.9Z" fill="white"/>
<path d="M330.51 158.7V163.91H329.22V152.33H330.51V157.54H333.36V152.33H334.65V163.91H333.36V158.7H330.51Z" fill="white"/>
<path d="M210.07 294.52V295.68H207.24V299.8H210.71V301H206V289.39H210.76V290.56H207.29V294.56L210.07 294.52Z" fill="white"/>
<path d="M213.58 301V290.56H211.44V289.39H217V290.56H214.86V301H213.58Z" fill="white"/>
<path d="M219.16 295.76V301H217.87V289.39H219.16V294.6H222V289.39H223.28V301H222V295.79L219.16 295.76Z" fill="white"/>
<path d="M228.74 294.52V295.68H225.91V299.8H229.39V301H224.62V289.39H229.39V290.56H225.91V294.56L228.74 294.52Z" fill="white"/>
<path d="M233.16 289.39C234.99 289.39 235.75 290.31 235.75 292.03V293.03C235.75 294.3 235.3 295.1 234.31 295.41C235.37 295.73 235.76 296.59 235.76 297.83V299.63C235.732 300.099 235.814 300.568 236 301H234.7C234.514 300.554 234.439 300.071 234.48 299.59V297.77C234.48 296.47 233.87 296.05 232.79 296.05H231.88V301.05H230.59V289.39H233.16ZM232.83 294.85C233.83 294.85 234.47 294.52 234.47 293.26V292.15C234.47 291.15 234.09 290.56 233.13 290.56H231.87V294.85H232.83Z" fill="white"/>
<path d="M241.23 294.52V295.68H238.4V299.8H241.87V301H237.11V289.39H241.87V290.56H238.4V294.56L241.23 294.52Z" fill="white"/>
<path d="M244.29 298.24C244.29 299.24 244.71 299.91 245.65 299.91C246.59 299.91 246.99 299.28 246.99 298.24V289.39H248.2V298.17C248.2 299.93 247.39 301.1 245.6 301.1C243.81 301.1 243.02 299.93 243.02 298.17V289.39H244.29V298.24Z" fill="white"/>
<path d="M253.74 301H252.5L250.58 291.79V301H249.46V289.39H251.26L253.16 298.64L255 289.39H256.81V301H255.58V291.69L253.74 301Z" fill="white"/>
<path d="M316.33 289.44C317.74 289.64 318.38 290.73 318.38 292.28V292.6H317.18V292.2C317.18 291.2 316.76 290.55 315.84 290.55C314.92 290.55 314.51 291.18 314.51 292.2C314.51 294.8 318.4 294.81 318.4 298.08C318.4 299.63 317.74 300.74 316.33 300.94V301.81H315.27V300.94C313.83 300.74 313.19 299.65 313.19 298.08V297.36H314.4V298.16C314.4 299.16 314.83 299.8 315.75 299.8C316.67 299.8 317.11 299.2 317.11 298.16C317.11 295.58 313.24 295.54 313.24 292.28C313.24 290.69 313.88 289.65 315.24 289.44V288.51H316.3L316.33 289.44Z" fill="white"/>
<path d="M324.59 291.49C324.104 291.78 323.555 291.952 322.99 291.99V290.93C323.45 290.942 323.899 290.796 324.264 290.515C324.628 290.235 324.884 289.837 324.99 289.39H325.88V301H324.6L324.59 291.49Z" fill="white"/>
<path d="M329.12 294.1C329.284 293.788 329.532 293.529 329.836 293.352C330.14 293.175 330.488 293.088 330.84 293.1C332.33 293.1 332.99 294.2 332.99 295.85V298.12C332.99 299.89 332.14 301.05 330.37 301.05C328.6 301.05 327.77 299.89 327.77 298.12V297.34H329V298.2C329 299.2 329.43 299.87 330.36 299.87C331.29 299.87 331.72 299.24 331.72 298.2V296C331.72 295 331.29 294.33 330.36 294.33C330.192 294.323 330.024 294.35 329.867 294.409C329.71 294.468 329.566 294.558 329.444 294.674C329.322 294.789 329.224 294.928 329.156 295.082C329.089 295.236 329.053 295.402 329.05 295.57V295.84H327.84L328.16 289.4H332.73V290.56H329.3L329.12 294.1Z" fill="white"/>
<path d="M334.8 301H334.32V299.4H335.56V300.89L334.91 302.46H334.38L334.8 301Z" fill="white"/>
<path d="M342.08 292.17V292.38H340.87V292.08C340.87 291.08 340.44 290.43 339.5 290.43C338.56 290.43 338.09 291.06 338.09 292.3V294.9C338.223 294.517 338.478 294.188 338.816 293.964C339.153 293.74 339.555 293.633 339.96 293.66C341.45 293.66 342.11 294.73 342.11 296.4V298.16C342.11 299.93 341.23 301.09 339.46 301.09C337.69 301.09 336.8 299.93 336.8 298.16V292.25C336.8 290.41 337.63 289.25 339.46 289.25C341.29 289.25 342.08 290.4 342.08 292.17ZM338.08 296.5V298.24C338.08 299.24 338.51 299.91 339.45 299.91C340.39 299.91 340.83 299.28 340.83 298.24V296.5C340.83 295.5 340.38 294.83 339.45 294.83C338.52 294.83 338.09 295.46 338.09 296.5H338.08Z" fill="white"/>
<path d="M344.61 294.1C344.775 293.79 345.024 293.532 345.328 293.355C345.632 293.179 345.979 293.09 346.33 293.1C347.82 293.1 348.49 294.2 348.49 295.85V298.12C348.49 299.89 347.64 301.05 345.87 301.05C344.1 301.05 343.27 299.89 343.27 298.12V297.34H344.48V298.2C344.48 299.2 344.91 299.87 345.84 299.87C346.77 299.87 347.2 299.24 347.2 298.2V296C347.2 295 346.77 294.33 345.84 294.33C345.672 294.323 345.504 294.35 345.347 294.409C345.19 294.468 345.046 294.558 344.924 294.674C344.802 294.789 344.704 294.928 344.636 295.082C344.569 295.236 344.533 295.402 344.53 295.57V295.84H343.32L343.64 289.4H348.2V290.56H344.8L344.61 294.1Z" fill="white"/>
<path d="M354.94 292.2C354.94 295.69 351.02 296.95 351 299.61V299.8H354.81V301H349.73V300C349.73 296.26 353.65 295.53 353.65 292.27C353.65 291.08 353.25 290.45 352.3 290.45C351.35 290.45 350.94 291.13 350.94 292.15V293.15H349.73V292.21C349.73 290.44 350.54 289.21 352.33 289.21C354.12 289.21 354.94 290.43 354.94 292.2Z" fill="white"/>
<path d="M357.38 299.37V301H356.14V299.4L357.38 299.37Z" fill="white"/>
<path d="M363.85 292.18V292.48C363.907 292.976 363.8 293.477 363.545 293.907C363.29 294.337 362.902 294.671 362.44 294.86C362.904 295.052 363.293 295.391 363.547 295.824C363.802 296.257 363.908 296.761 363.85 297.26V298.16C363.85 299.93 363.02 301.09 361.24 301.09C359.46 301.09 358.64 299.93 358.64 298.16V297.36H359.85V298.24C359.85 299.24 360.28 299.91 361.2 299.91C362.12 299.91 362.56 299.3 362.56 298.13V297.23C362.56 296.09 362.08 295.54 361.1 295.51H360.41V294.35H361.17C361.371 294.352 361.569 294.311 361.753 294.229C361.936 294.147 362.099 294.026 362.231 293.875C362.363 293.724 362.461 293.546 362.518 293.354C362.574 293.161 362.589 292.959 362.56 292.76V292.23C362.56 291.04 362.15 290.43 361.2 290.43C360.25 290.43 359.85 291.08 359.85 292.12V292.71H358.64V292.18C358.64 290.41 359.46 289.27 361.24 289.27C363.02 289.27 363.85 290.41 363.85 292.18Z" fill="white"/>
<path d="M370.32 292.2C370.32 295.69 366.4 296.95 366.39 299.61V299.8H370.19V301H365.11V300C365.11 296.26 369.03 295.53 369.03 292.27C369.03 291.08 368.64 290.45 367.68 290.45C366.72 290.45 366.32 291.13 366.32 292.15V293.15H365.11V292.21C365.11 290.44 365.92 289.21 367.71 289.21C369.5 289.21 370.32 290.43 370.32 292.2Z" fill="white"/>
<path d="M352.75 155.13V155.43C352.805 155.926 352.697 156.426 352.443 156.856C352.188 157.285 351.801 157.62 351.34 157.81C351.805 158.001 352.195 158.339 352.449 158.772C352.704 159.206 352.81 159.711 352.75 160.21V161.1C352.75 162.87 351.92 164.03 350.14 164.03C348.36 164.03 347.54 162.87 347.54 161.1V160.31H348.75V161.18C348.75 162.18 349.18 162.86 350.1 162.86C351.02 162.86 351.46 162.24 351.46 161.07V160.17C351.46 159.03 350.98 158.49 350 158.45H349.31V157.3H350.07C350.271 157.302 350.469 157.261 350.653 157.179C350.836 157.097 350.999 156.976 351.131 156.825C351.263 156.674 351.361 156.496 351.418 156.303C351.474 156.111 351.489 155.909 351.46 155.71V155.18C351.46 153.99 351.05 153.37 350.1 153.37C349.15 153.37 348.75 154.02 348.75 155.06V155.66H347.54V155.13C347.54 153.36 348.36 152.21 350.14 152.21C351.92 152.21 352.75 153.36 352.75 155.13Z" fill="white"/>
<path d="M359.22 155.14C359.22 158.64 355.3 159.89 355.29 162.56V162.74H359.09V163.91H354V162.91C354 159.17 357.92 158.44 357.92 155.18C357.92 153.99 357.53 153.36 356.57 153.36C355.61 153.36 355.21 154.04 355.21 155.07V156.07H354V155.13C354 153.36 354.81 152.18 356.6 152.18C358.39 152.18 359.22 153.37 359.22 155.14Z" fill="white"/>
<path d="M363.66 154.13V157.79C363.66 158.92 363.13 159.66 362.01 159.66C360.89 159.66 360.35 158.92 360.35 157.79V154.13C360.35 153.03 360.88 152.26 362.01 152.26C363.14 152.26 363.66 153 363.66 154.13ZM361.18 154.13V157.91C361.18 158.54 361.41 158.91 362.01 158.91C362.61 158.91 362.83 158.5 362.83 157.91V154.13C362.83 153.51 362.59 153.08 362.01 153.08C361.43 153.08 361.18 153.46 361.18 154.08V154.13ZM367.48 152.38L362.92 163.96H362.14L366.71 152.38H367.48ZM369.36 158.5V162.14C369.36 163.27 368.84 164.01 367.7 164.01C366.56 164.01 366.05 163.27 366.05 162.14V158.5C366.05 157.39 366.58 156.65 367.7 156.65C368.82 156.65 369.36 157.34 369.36 158.45V158.5ZM366.87 158.5V162.26C366.87 162.89 367.12 163.32 367.7 163.32C368.28 163.32 368.53 162.89 368.53 162.26V158.4C368.53 157.78 368.28 157.4 367.7 157.4C367.12 157.4 366.87 157.78 366.87 158.4V158.5Z" fill="white"/>
<path d="M215.86 69C218.86 69.43 220.26 71.77 220.26 75.11V75.78H217.66V74.93C217.66 72.73 216.78 71.38 214.79 71.38C212.8 71.38 212 72.68 212 74.88C212 80.45 220.34 80.49 220.34 87.48C220.34 90.82 218.92 93.2 215.91 93.62V95.5H213.63V93.62C210.55 93.2 209.16 90.85 209.16 87.48V86H211.75V87.7C211.75 89.94 212.67 91.21 214.66 91.21C216.65 91.21 217.57 89.94 217.57 87.7C217.57 82.16 209.27 82.09 209.27 75.1C209.27 71.69 210.65 69.45 213.63 68.99V67H215.91L215.86 69Z" fill="white"/>
<path d="M239.68 74.88C239.68 82.37 231.26 85.07 231.23 90.78V91.17H239.39V93.69H228.5V91.56C228.5 83.56 236.91 81.98 236.91 74.99C236.91 72.43 236.06 71.08 234 71.08C231.94 71.08 231.09 72.54 231.09 74.74V76.94H228.5V74.94C228.5 71.14 230.23 68.62 234.07 68.62C237.91 68.62 239.68 71.08 239.68 74.88Z" fill="white"/>
<path d="M242 74.85C242 71.05 243.88 68.6 247.68 68.6C251.48 68.6 253.4 71.05 253.4 74.85V87.66C253.4 91.46 251.52 93.94 247.68 93.94C243.84 93.94 242 91.46 242 87.66V74.85ZM244.73 87.85C244.73 90.08 245.73 91.43 247.68 91.43C249.63 91.43 250.68 90.08 250.68 87.85V74.7C250.68 72.43 249.75 71.08 247.68 71.08C245.61 71.08 244.73 72.43 244.73 74.7V87.85Z" fill="white"/>
<path d="M257.25 93.69H256.25V90.25H258.92V93.45L257.53 96.82H256.4L257.25 93.69Z" fill="white"/>
<path d="M272.87 74.85V87.52C272.87 91.46 271.1 93.94 267.12 93.94C263.32 93.94 261.51 91.49 261.51 87.7V87.23H264.1V87.87C264.1 90.11 265.1 91.42 267.05 91.42C269 91.42 270.1 90.07 270.1 87.42V81.87C269.806 82.6811 269.258 83.3754 268.537 83.8494C267.816 84.3234 266.961 84.5516 266.1 84.5C262.91 84.5 261.49 82.23 261.49 78.64V74.85C261.49 71.05 263.33 68.6 267.17 68.6C271.01 68.6 272.87 71.05 272.87 74.85ZM264.21 74.7V78.43C264.21 80.67 265.21 82.02 267.21 82.02C269.21 82.02 270.15 80.67 270.15 78.43V74.7C270.15 72.43 269.23 71.12 267.21 71.12C265.19 71.12 264.21 72.43 264.21 74.7Z" fill="white"/>
<path d="M280.61 73.35C279.569 73.985 278.387 74.3525 277.17 74.42V72.15C279.87 72.04 280.79 70.59 281.43 68.85H283.35V93.69H280.61V73.35Z" fill="white"/>
<path d="M298.68 74.81V75.27H296.09V74.63C296.09 72.4 295.17 71.08 293.15 71.08C291.13 71.08 290.15 72.43 290.15 75.08V80.66C290.437 79.8414 290.982 79.1383 291.704 78.6567C292.425 78.1751 293.284 77.9411 294.15 77.99C297.34 77.99 298.76 80.3 298.76 83.89V87.65C298.76 91.45 296.88 93.93 293.08 93.93C289.28 93.93 287.37 91.45 287.37 87.65V75C287.37 71.06 289.14 68.61 293.08 68.61C297.02 68.61 298.68 71 298.68 74.81ZM290.13 84.11V87.84C290.13 90.07 291.05 91.42 293.07 91.42C295.09 91.42 296 90.07 296 87.84V84.11C296 81.87 295 80.53 293.05 80.53C291.1 80.53 290.13 81.87 290.13 84.11Z" fill="white"/>
<path d="M304 90.25V93.69H301.34V90.25H304Z" fill="white"/>
<path d="M318 74.85V87.52C318 91.46 316.22 93.94 312.25 93.94C308.45 93.94 306.64 91.49 306.64 87.7V87.23H309.23V87.87C309.23 90.11 310.23 91.42 312.17 91.42C314.11 91.42 315.23 90.07 315.23 87.42V81.87C314.936 82.6811 314.388 83.3754 313.667 83.8494C312.946 84.3234 312.091 84.5516 311.23 84.5C308.03 84.5 306.61 82.23 306.61 78.64V74.85C306.61 71.05 308.46 68.6 312.29 68.6C316.12 68.6 318 71.05 318 74.85ZM309.33 74.7V78.43C309.33 80.67 310.33 82.02 312.28 82.02C314.23 82.02 315.28 80.67 315.28 78.43V74.7C315.28 72.43 314.35 71.12 312.28 71.12C310.21 71.12 309.33 72.43 309.33 74.7Z" fill="white"/>
<path d="M331.84 74.88C331.84 82.37 323.43 85.07 323.39 90.78V91.17H331.56V93.69H320.66V91.56C320.66 83.56 329.07 81.98 329.07 74.99C329.07 72.43 328.22 71.08 326.16 71.08C324.1 71.08 323.25 72.54 323.25 74.74V76.94H320.66V74.94C320.66 71.14 322.4 68.62 326.23 68.62C330.06 68.62 331.84 71.08 331.84 74.88Z" fill="white"/>
<path d="M251.17 42.75C252.97 42.75 253.68 43.61 253.68 45.31V45.86C253.68 47.08 253.33 47.86 252.32 48.15C253.45 48.47 253.88 49.36 253.88 50.63V51.63C253.932 51.9927 253.899 52.3624 253.785 52.7105C253.671 53.0587 253.479 53.376 253.223 53.6379C252.967 53.8998 252.654 54.0993 252.308 54.2211C251.963 54.3428 251.594 54.3835 251.23 54.34H248.57V42.75H251.17ZM250.85 47.66C251.85 47.66 252.41 47.33 252.41 46.12V45.44C252.41 44.44 252.06 43.92 251.13 43.92H249.86V47.66H250.85ZM251.23 53.14C252.23 53.14 252.6 52.65 252.6 51.57V50.57C252.6 49.28 252.09 48.85 250.98 48.85H249.86V53.16L251.23 53.14Z" fill="white"/>
<path d="M256.36 52L255.91 54.33H254.72L256.94 42.76H258.8L261 54.32H259.71L259.28 52H256.36ZM256.52 50.89H259.1L257.8 44.21L256.52 50.89Z" fill="white"/>
<path d="M262 54.32V42.75H263.29V53.14H266.59V54.32H262Z" fill="white"/>
<path d="M268.91 52L268.46 54.33H267.27L269.48 42.76H271.35L273.57 54.33H272.28L271.83 52H268.91ZM269.07 50.89H271.65L270.34 44.21L269.07 50.89Z" fill="white"/>
<path d="M275.72 54.32H274.56V42.75H276.2L278.87 51.11V42.75H280V54.32H278.67L275.67 44.96L275.72 54.32Z" fill="white"/>
<path d="M286.45 45.5399V46.5399H285.22V45.4399C285.22 44.4399 284.81 43.7699 283.87 43.7699C282.93 43.7699 282.51 44.3899 282.51 45.4399V51.5499C282.51 52.5499 282.94 53.2199 283.87 53.2199C284.8 53.2199 285.22 52.5899 285.22 51.5499V50.0499H286.45V51.4799C286.45 53.2399 285.62 54.3899 283.83 54.3899C282.04 54.3899 281.24 53.2399 281.24 51.4799V45.4799C281.24 43.7299 282.07 42.5699 283.83 42.5699C285.59 42.5699 286.45 43.7899 286.45 45.5399Z" fill="white"/>
<path d="M291.74 47.87V49H288.91V53.11H292.38V54.29H287.62V42.75H292.38V43.92H288.91V47.87H291.74Z" fill="white"/>
<path d="M250.52 111.78V114.11H249.6V111.78H247.32V110.85H249.6V108.55H250.52V110.85H252.8V111.78H250.52Z" fill="white"/>
<path d="M261.73 108.34C261.73 111.83 257.81 113.08 257.8 115.74V115.92H261.6V117.1H256.52V116.1C256.52 112.36 260.44 111.63 260.44 108.38C260.44 107.19 260.04 106.56 259.09 106.56C258.14 106.56 257.73 107.24 257.73 108.26V109.26H256.52V108.26C256.52 106.5 257.33 105.32 259.12 105.32C260.91 105.32 261.73 106.57 261.73 108.34Z" fill="white"/>
<path d="M264.21 110.24C264.372 109.927 264.619 109.666 264.924 109.489C265.229 109.312 265.578 109.225 265.93 109.24C267.42 109.24 268.08 110.33 268.08 111.98V114.25C268.08 116.02 267.24 117.17 265.47 117.17C263.7 117.17 262.87 116.02 262.87 114.25V113.47H264.08V114.33C264.08 115.33 264.51 116 265.43 116C266.35 116 266.79 115.37 266.79 114.33V112.08C266.79 111.08 266.36 110.41 265.43 110.41C265.262 110.402 265.094 110.428 264.937 110.487C264.78 110.545 264.636 110.635 264.514 110.751C264.393 110.867 264.296 111.007 264.23 111.161C264.164 111.316 264.13 111.482 264.13 111.65V112H262.92L263.24 105.57H267.8V106.72H264.39L264.21 110.24Z" fill="white"/>
<path d="M270.56 115.49V117.1H269.32V115.49H270.56Z" fill="white"/>
<path d="M277.07 108.32V114.22C277.07 116.06 276.25 117.22 274.39 117.22C272.53 117.22 271.78 116.08 271.78 114.31V114.1H273V114.4C273 115.4 273.45 116.05 274.37 116.05C275.29 116.05 275.79 115.42 275.79 114.2V111.6C275.657 111.982 275.402 112.31 275.064 112.532C274.725 112.754 274.324 112.859 273.92 112.83C272.44 112.83 271.78 111.77 271.78 110.1V108.33C271.78 106.56 272.64 105.42 274.42 105.42C276.2 105.42 277.07 106.55 277.07 108.32ZM273.07 108.26V110C273.07 111 273.51 111.67 274.44 111.67C275.37 111.67 275.81 111.04 275.81 110V108.27C275.81 107.21 275.38 106.6 274.44 106.6C273.5 106.6 273 107.2 273 108.26H273.07Z" fill="white"/>
<path d="M283.45 108.32V108.62C283.504 109.114 283.397 109.613 283.145 110.042C282.892 110.471 282.509 110.807 282.05 111C282.513 111.193 282.901 111.531 283.153 111.965C283.406 112.398 283.51 112.902 283.45 113.4V114.29C283.45 116.06 282.63 117.21 280.84 117.21C279.05 117.21 278.25 116.06 278.25 114.29V113.49H279.45V114.37C279.45 115.37 279.88 116.04 280.81 116.04C281.74 116.04 282.17 115.43 282.17 114.25V113.36C282.17 112.22 281.69 111.68 280.71 111.64H280V110.49H280.76C280.961 110.492 281.159 110.451 281.343 110.369C281.526 110.287 281.689 110.166 281.821 110.015C281.953 109.864 282.051 109.686 282.108 109.493C282.164 109.301 282.179 109.098 282.15 108.9V108.37C282.15 107.18 281.73 106.57 280.79 106.57C279.85 106.57 279.43 107.21 279.43 108.26V108.85H278.23V108.32C278.23 106.55 279.05 105.41 280.82 105.41C282.59 105.41 283.45 106.55 283.45 108.32Z" fill="white"/>
<path d="M288 107.33V111C288 112.13 287.47 112.87 286.35 112.87C285.23 112.87 284.7 112.13 284.7 111V107.35C284.7 106.24 285.22 105.48 286.35 105.48C287.48 105.48 288 106.22 288 107.33ZM285.52 107.33V111.1C285.52 111.73 285.75 112.1 286.35 112.1C286.95 112.1 287.17 111.69 287.17 111.1V107.33C287.17 106.7 286.93 106.27 286.35 106.27C285.77 106.27 285.47 106.65 285.47 107.28L285.52 107.33ZM291.82 105.58L287.26 117.15H286.48L291 105.53L291.82 105.58ZM293.69 111.69V115.33C293.69 116.45 293.17 117.2 292.03 117.2C290.89 117.2 290.38 116.45 290.38 115.33V111.69C290.38 110.59 290.91 109.84 292.03 109.84C293.15 109.84 293.64 110.54 293.64 111.64L293.69 111.69ZM291.21 111.69V115.45C291.21 116.07 291.45 116.5 292.03 116.5C292.61 116.5 292.86 116.07 292.86 115.45V111.69C292.86 111.07 292.61 110.69 292.03 110.69C291.45 110.69 291.16 111 291.16 111.59L291.21 111.69Z" fill="white"/>
<path d="M168.45 24.8099C168.45 27.7099 165.19 28.7499 165.18 30.9599V31.1199H168.34V32.1199H164.12V31.2999C164.12 28.1899 167.38 27.5899 167.38 24.8799C167.38 23.8799 167.05 23.3699 166.25 23.3699C165.45 23.3699 165.12 23.9299 165.12 24.7899V25.6399H164.12V24.8499C164.12 23.3899 164.8 22.4099 166.28 22.4099C167.76 22.4099 168.45 23.3399 168.45 24.8099Z" fill="white"/>
<path d="M173.71 24.8V25C173.761 25.4155 173.674 25.8363 173.463 26.1977C173.252 26.559 172.927 26.8409 172.54 27C172.926 27.1604 173.25 27.4426 173.461 27.8036C173.672 28.1646 173.759 28.5847 173.71 29V29.75C173.71 31.22 173.02 32.18 171.54 32.18C170.06 32.18 169.38 31.18 169.38 29.75V29.1H170.38V29.82C170.38 30.69 170.73 31.21 171.5 31.21C172.27 31.21 172.63 30.7 172.63 29.73V29C172.63 28.05 172.23 27.6 171.42 27.57H170.84V26.57H171.48C171.646 26.5718 171.811 26.5375 171.963 26.4694C172.115 26.4013 172.25 26.301 172.36 26.1755C172.469 26.05 172.55 25.9022 172.597 25.7424C172.643 25.5827 172.655 25.4146 172.63 25.25V24.81C172.63 23.81 172.29 23.31 171.5 23.31C170.71 23.31 170.38 23.85 170.38 24.71V25.21H169.38V24.8C169.38 23.33 170.07 22.38 171.54 22.38C173.01 22.38 173.71 23.33 173.71 24.8Z" fill="white"/>
<path d="M175.79 25.5299V26.8599H174.79V25.5299H175.79ZM175.79 30.7599V32.0899H174.79V30.7599H175.79Z" fill="white"/>
<path d="M178 26.39C178.14 26.1364 178.348 25.927 178.601 25.7856C178.853 25.6442 179.141 25.5764 179.43 25.59C180.66 25.59 181.21 26.5 181.21 27.87V29.76C181.21 31.23 180.51 32.19 179.04 32.19C177.57 32.19 176.89 31.19 176.89 29.76V29.11H177.89V29.82C177.89 30.69 178.24 31.21 179.01 31.21C179.78 31.21 180.14 30.69 180.14 29.82V28C180.14 27.13 179.78 26.61 179.01 26.61C178.872 26.5989 178.733 26.6166 178.603 26.6619C178.472 26.7071 178.352 26.779 178.251 26.873C178.149 26.967 178.068 27.081 178.013 27.2079C177.958 27.3347 177.93 27.4717 177.93 27.61V27.83H176.93L177.19 22.49H180.98V23.49H178.15L178 26.39Z" fill="white"/>
<path d="M186.52 24.78V25H185.52V24.76C185.52 23.89 185.17 23.38 184.38 23.38C183.59 23.38 183.22 23.9 183.22 24.93V27.09C183.336 26.7783 183.549 26.5125 183.829 26.3323C184.108 26.152 184.438 26.067 184.77 26.09C186 26.09 186.55 26.98 186.55 28.37V29.83C186.55 31.3 185.83 32.26 184.36 32.26C182.89 32.26 182.14 31.26 182.14 29.83V24.85C182.14 23.33 182.83 22.38 184.36 22.38C185.89 22.38 186.52 23.31 186.52 24.78ZM183.21 28.38V29.82C183.21 30.69 183.56 31.21 184.35 31.21C185.14 31.21 185.49 30.69 185.49 29.82V28.38C185.49 27.52 185.12 27 184.35 27C183.58 27 183.21 27.52 183.21 28.38Z" fill="white"/>
<path d="M308.31 183.23C308.31 182.411 308.067 181.611 307.612 180.93C307.157 180.249 306.511 179.718 305.754 179.405C304.998 179.092 304.165 179.01 303.362 179.17C302.559 179.329 301.822 179.724 301.243 180.303C300.664 180.882 300.269 181.619 300.11 182.422C299.95 183.225 300.032 184.058 300.345 184.814C300.658 185.571 301.189 186.217 301.87 186.672C302.551 187.127 303.351 187.37 304.17 187.37C305.268 187.37 306.321 186.934 307.097 186.157C307.874 185.381 308.31 184.328 308.31 183.23Z" fill="#263238"/>
<path d="M319.85 176.48C321.65 176.48 322.36 177.34 322.36 179.04V179.59C322.36 180.81 322.01 181.59 321.01 181.89C322.13 182.2 322.56 183.1 322.56 184.37V185.37C322.614 185.733 322.583 186.104 322.47 186.453C322.356 186.802 322.164 187.12 321.907 187.382C321.651 187.645 321.337 187.844 320.99 187.965C320.644 188.086 320.274 188.126 319.91 188.08H317.25V176.48H319.85ZM319.53 181.39C320.53 181.39 321.09 181.06 321.09 179.85V179.17C321.09 178.17 320.74 177.65 319.81 177.65H318.54V181.39H319.53ZM319.91 186.89C320.86 186.89 321.29 186.39 321.29 185.31V184.31C321.29 183.02 320.77 182.59 319.66 182.59H318.54V186.91L319.91 186.89Z" fill="white"/>
<path d="M325.43 188.06V177.65H323.29V176.48H328.85V177.65H326.72V188.06H325.43Z" fill="white"/>
<path d="M334.86 179.27V180.27H333.64V179.16C333.64 178.11 333.22 177.49 332.28 177.49C331.34 177.49 330.92 178.11 330.92 179.16V185.28C330.92 186.28 331.35 186.95 332.28 186.95C333.21 186.95 333.64 186.32 333.64 185.28V183.77H334.86V185.21C334.86 186.97 334.03 188.13 332.25 188.13C330.47 188.13 329.65 186.97 329.65 185.21V179.21C329.65 177.46 330.48 176.3 332.25 176.3C334.02 176.3 334.86 177.52 334.86 179.27Z" fill="white"/>
<path d="M352.82 179.29C352.82 182.78 348.89 184.04 348.88 186.7V186.89H352.68V188.06H347.6V187.06C347.6 183.32 351.53 182.59 351.53 179.33C351.53 178.14 351.13 177.51 350.17 177.51C349.21 177.51 348.81 178.19 348.81 179.21V180.21H347.6V179.27C347.6 177.5 348.41 176.32 350.2 176.32C351.99 176.32 352.82 177.52 352.82 179.29Z" fill="white"/>
<path d="M359.32 179.22V179.59C359.392 180.081 359.302 180.581 359.064 181.016C358.826 181.451 358.452 181.796 358 182C358.452 182.215 358.824 182.568 359.062 183.009C359.299 183.449 359.39 183.954 359.32 184.45V185.31C359.32 187.1 358.4 188.21 356.59 188.21C354.78 188.21 353.86 187.1 353.86 185.31V184.45C353.792 183.952 353.885 183.445 354.127 183.004C354.368 182.563 354.744 182.211 355.2 182C354.748 181.804 354.372 181.465 354.13 181.035C353.888 180.606 353.793 180.109 353.86 179.62V179.25C353.86 178.526 354.148 177.832 354.66 177.32C355.172 176.808 355.866 176.52 356.59 176.52C357.314 176.52 358.008 176.808 358.52 177.32C359.032 177.832 359.32 178.526 359.32 179.25V179.22ZM355.14 179.22V179.78C355.14 180.9 355.68 181.4 356.59 181.4C357.5 181.4 358.05 180.9 358.05 179.78V179.22C358.05 178.03 357.5 177.48 356.59 177.48C355.68 177.48 355.14 178.07 355.14 179.26V179.22ZM355.14 184.22V185.22C355.14 186.41 355.67 186.97 356.59 186.97C357.51 186.97 358.03 186.41 358.05 185.22V184.22C358.05 183.09 357.55 182.55 356.59 182.55C355.63 182.55 355.14 183.14 355.14 184.27V184.22Z" fill="white"/>
<path d="M363.74 178.28V181.94C363.74 183.06 363.21 183.81 362.09 183.81C360.97 183.81 360.44 183.06 360.44 181.94V178.28C360.44 177.17 360.96 176.41 362.09 176.41C363.22 176.41 363.74 177.17 363.74 178.28ZM361.26 178.23V182C361.26 182.63 361.49 183.05 362.09 183.05C362.69 183.05 362.92 182.63 362.92 182V178.23C362.92 177.6 362.67 177.17 362.09 177.17C361.51 177.17 361.26 177.6 361.26 178.23ZM367.57 176.48L363 188.06H362.22L366.79 176.48H367.57ZM369.44 182.6V186.24C369.44 187.37 368.92 188.11 367.78 188.11C366.64 188.11 366.13 187.37 366.13 186.24V182.6C366.13 181.49 366.66 180.75 367.78 180.75C368.9 180.75 369.44 181.49 369.44 182.6ZM366.96 182.6V186.36C366.96 186.99 367.2 187.42 367.78 187.42C368.36 187.42 368.61 186.99 368.61 186.36V182.6C368.61 181.97 368.36 181.6 367.78 181.6C367.2 181.6 367 181.92 367 182.55L366.96 182.6Z" fill="white"/>
<path d="M304.17 211.52C306.456 211.52 308.31 209.666 308.31 207.38C308.31 205.094 306.456 203.24 304.17 203.24C301.884 203.24 300.03 205.094 300.03 207.38C300.03 209.666 301.884 211.52 304.17 211.52Z" fill="#919191"/>
<path d="M320.13 207.21L318.19 212.21H317L319.33 206.21L317.15 200.6H318.49L320.27 205.24L322.08 200.6H323.29L321.12 206.21L323.43 212.21H322.08L320.13 207.21Z" fill="white"/>
<path d="M327 200.62C328.82 200.62 329.58 201.55 329.58 203.27V204.21C329.58 205.49 329.14 206.28 328.14 206.6C329.2 206.91 329.6 207.77 329.6 209.01V210.82C329.565 211.295 329.644 211.771 329.83 212.21H328.52C328.346 211.761 328.274 211.28 328.31 210.8V209C328.31 207.69 327.7 207.28 326.62 207.28H325.71V212.28H324.42V200.62H327ZM326.67 206.08C327.67 206.08 328.31 205.75 328.31 204.49V203.39C328.31 202.39 327.93 201.8 326.97 201.8H325.71V206.08H326.67Z" fill="white"/>
<path d="M333.51 200.62C335.33 200.62 336.1 201.7 336.1 203.45V204.84C336.1 206.68 335.24 207.64 333.41 207.64H332.27V212.21H331V200.62H333.51ZM333.41 206.48C334.41 206.48 334.83 206.03 334.83 204.92V203.39C334.83 202.33 334.45 201.8 333.51 201.8H332.27V206.48H333.41Z" fill="white"/>
<path d="M350 202.72C349.515 203.021 348.96 203.193 348.39 203.22V202.16C348.85 202.172 349.299 202.026 349.664 201.745C350.028 201.465 350.284 201.067 350.39 200.62H351.28V212.21H350V202.72Z" fill="white"/>
<path d="M358.41 203.44C358.41 206.93 354.49 208.19 354.47 210.85V211H358.28V212.18H353.2V211.18C353.2 207.44 357.12 206.72 357.12 203.46C357.12 202.26 356.72 201.64 355.76 201.64C354.8 201.64 354.41 202.31 354.41 203.34V204.34H353.2V203.34C353.2 201.57 354.01 200.4 355.8 200.4C357.59 200.4 358.41 201.67 358.41 203.44Z" fill="white"/>
<path d="M362.85 202.43V206.08C362.85 207.21 362.32 207.95 361.2 207.95C360.08 207.95 359.54 207.21 359.54 206.08V202.43C359.54 201.32 360.07 200.56 361.2 200.56C362.33 200.56 362.85 201.32 362.85 202.43ZM360.37 202.38V206.15C360.37 206.78 360.6 207.15 361.2 207.15C361.8 207.15 362.02 206.74 362.02 206.15V202.38C362.02 201.75 361.78 201.32 361.2 201.32C360.62 201.32 360.37 201.75 360.37 202.38ZM366.67 200.62L362.11 212.21H361.33L365.9 200.62H366.67ZM368.54 206.75V210.39C368.54 211.51 368.03 212.26 366.89 212.26C365.75 212.26 365.23 211.51 365.23 210.39V206.75C365.23 205.64 365.76 204.89 366.89 204.89C368.02 204.89 368.54 205.64 368.54 206.75ZM366.06 206.7V210.45C366.06 211.08 366.31 211.51 366.89 211.51C367.47 211.51 367.72 211.08 367.72 210.45V206.7C367.72 206.07 367.47 205.7 366.89 205.7C366.31 205.7 366.06 206.07 366.06 206.7Z" fill="white"/>
<path d="M304.17 235.66C306.456 235.66 308.31 233.806 308.31 231.52C308.31 229.233 306.456 227.38 304.17 227.38C301.884 227.38 300.03 229.233 300.03 231.52C300.03 233.806 301.884 235.66 304.17 235.66Z" fill="white"/>
<path d="M317.25 236.35V224.77H318.54V235.18H321.85V236.35H317.25Z" fill="white"/>
<path d="M323.69 236.35V225.94H321.55V224.77H327.11V225.94H325V236.35H323.69Z" fill="white"/>
<path d="M333.12 227.57V228.57H331.9V227.5C331.9 226.5 331.49 225.83 330.54 225.83C329.59 225.83 329.19 226.46 329.19 227.5V233.62C329.19 234.62 329.62 235.29 330.54 235.29C331.46 235.29 331.9 234.66 331.9 233.62V232.12H333.12V233.56C333.12 235.31 332.3 236.47 330.51 236.47C328.72 236.47 327.91 235.31 327.91 233.56V227.56C327.91 225.8 328.74 224.64 330.51 224.64C332.28 224.64 333.12 225.81 333.12 227.57Z" fill="white"/>
<path d="M352.82 227.58C352.82 231.07 348.89 232.33 348.88 235V235.18H352.68V236.35H347.6V235.35C347.6 231.61 351.53 230.88 351.53 227.62C351.53 226.43 351.13 225.8 350.17 225.8C349.21 225.8 348.81 226.48 348.81 227.51V228.51H347.6V227.57C347.6 225.8 348.41 224.62 350.2 224.62C351.99 224.62 352.82 225.81 352.82 227.58Z" fill="white"/>
<path d="M359.32 227.52V227.88C359.387 228.366 359.294 228.861 359.056 229.29C358.818 229.719 358.448 230.059 358 230.26C358.452 230.475 358.824 230.828 359.062 231.269C359.299 231.709 359.39 232.214 359.32 232.71V233.57C359.32 235.36 358.4 236.47 356.59 236.47C354.78 236.47 353.86 235.36 353.86 233.57V232.71C353.792 232.212 353.885 231.705 354.127 231.264C354.368 230.823 354.744 230.471 355.2 230.26C354.748 230.064 354.372 229.725 354.13 229.295C353.888 228.866 353.793 228.369 353.86 227.88V227.52C353.86 226.796 354.148 226.102 354.66 225.59C355.172 225.078 355.866 224.79 356.59 224.79C357.314 224.79 358.008 225.078 358.52 225.59C359.032 226.102 359.32 226.796 359.32 227.52ZM355.14 227.52V228.08C355.14 229.21 355.68 229.7 356.59 229.7C357.5 229.7 358.05 229.21 358.05 228.08V227.52C358.05 226.33 357.5 225.78 356.59 225.78C355.68 225.78 355.14 226.36 355.14 227.55V227.52ZM355.14 232.52V233.52C355.14 234.71 355.67 235.27 356.59 235.27C357.51 235.27 358.03 234.71 358.05 233.52V232.52C358.05 231.4 357.55 230.85 356.59 230.85C355.63 230.85 355.14 231.44 355.14 232.56V232.52Z" fill="white"/>
<path d="M363.74 226.57V230.23C363.74 231.35 363.21 232.1 362.09 232.1C360.97 232.1 360.44 231.35 360.44 230.23V226.57C360.44 225.46 360.96 224.7 362.09 224.7C363.22 224.7 363.74 225.46 363.74 226.57ZM361.26 226.57V230.35C361.26 230.97 361.49 231.35 362.09 231.35C362.69 231.35 362.92 230.93 362.92 230.35V226.57C362.92 225.94 362.67 225.51 362.09 225.51C361.51 225.51 361.26 225.89 361.26 226.52V226.57ZM367.57 224.82L363 236.35H362.22L366.79 224.77L367.57 224.82ZM369.44 230.94V234.58C369.44 235.71 368.92 236.45 367.78 236.45C366.64 236.45 366.13 235.71 366.13 234.58V230.94C366.13 229.83 366.66 229.09 367.78 229.09C368.9 229.09 369.44 229.78 369.44 230.89V230.94ZM366.96 230.94V234.7C366.96 235.33 367.2 235.76 367.78 235.76C368.36 235.76 368.61 235.33 368.61 234.7V230.94C368.61 230.31 368.36 229.94 367.78 229.94C367.2 229.94 367 230.21 367 230.84L366.96 230.94Z" fill="white"/>
<path d="M331.48 25.21H328.77V32H331.48V25.21Z" fill="white"/>
<path d="M335.1 23.85H332.39V32H335.1V23.85Z" fill="white"/>
<path d="M338.72 22.88H336.01V31.99H338.72V22.88Z" fill="white"/>
<path d="M342.34 21.2H339.63V31.99H342.34V21.2Z" fill="white"/>
<path d="M376 31.8099H359.66V21.8099H376V31.8099ZM360.61 30.8999H375V22.7599H360.56L360.61 30.8999Z" fill="white"/>
<path d="M370.52 23.74H361.92V29.92H370.52V23.74Z" fill="white"/>
<path d="M377.43 25.6599H375.38V28.0099H377.43V25.6599Z" fill="white"/>
<path d="M353.68 29.6399C353.572 29.6372 353.466 29.6099 353.37 29.5599C350.06 27.5599 347.87 29.4099 347.78 29.4899C347.658 29.5959 347.499 29.6491 347.338 29.6379C347.176 29.6266 347.026 29.5518 346.92 29.4299C346.867 29.371 346.826 29.3018 346.8 29.2265C346.774 29.1513 346.763 29.0716 346.769 28.9921C346.774 28.9127 346.796 28.8353 346.832 28.7644C346.868 28.6936 346.919 28.6308 346.98 28.5799C347.09 28.4699 349.89 26.0699 353.98 28.5099C354.093 28.5795 354.181 28.6841 354.229 28.808C354.278 28.9319 354.284 29.0682 354.248 29.1961C354.212 29.3241 354.135 29.4367 354.029 29.5168C353.922 29.597 353.793 29.6402 353.66 29.6399H353.68Z" fill="white"/>
<path d="M354.91 27.5999C354.8 27.5983 354.693 27.5672 354.6 27.5099C349.81 24.6599 346.6 27.4199 346.55 27.4399C346.429 27.5471 346.271 27.6021 346.11 27.5927C345.948 27.5833 345.798 27.5104 345.69 27.3899C345.584 27.2679 345.531 27.1088 345.542 26.9475C345.553 26.7863 345.628 26.6361 345.75 26.5299C345.75 26.5299 349.67 23.1699 355.22 26.4699C355.333 26.539 355.42 26.6428 355.468 26.7657C355.517 26.8886 355.524 27.0239 355.489 27.1514C355.454 27.2788 355.379 27.3915 355.275 27.4724C355.17 27.5533 355.042 27.598 354.91 27.5999Z" fill="white"/>
<path d="M356 25.2299C355.89 25.2283 355.783 25.1972 355.69 25.1399C349.62 21.5299 345.59 24.9299 345.42 25.0799C345.298 25.1859 345.139 25.2391 344.978 25.2279C344.816 25.2166 344.666 25.1418 344.56 25.0199C344.454 24.8979 344.401 24.7387 344.412 24.5775C344.423 24.4162 344.498 24.2661 344.62 24.1599C344.62 24.1599 349.46 20.0199 356.32 24.0999C356.457 24.183 356.556 24.3166 356.595 24.4719C356.634 24.6272 356.611 24.7917 356.53 24.9299C356.474 25.0206 356.396 25.0957 356.304 25.1482C356.211 25.2007 356.106 25.2288 356 25.2299Z" fill="white"/>
<path d="M350.33 32.19C351.175 32.19 351.86 31.505 351.86 30.66C351.86 29.815 351.175 29.13 350.33 29.13C349.485 29.13 348.8 29.815 348.8 30.66C348.8 31.505 349.485 32.19 350.33 32.19Z" fill="white"/>
<path d="M182.52 305.34C187.601 305.34 191.72 301.221 191.72 296.14C191.72 291.059 187.601 286.94 182.52 286.94C177.439 286.94 173.32 291.059 173.32 296.14C173.32 301.221 177.439 305.34 182.52 305.34Z" fill="#92E3A9"/>
<path d="M208.54 351C210.35 351 211.06 351.86 211.06 353.56V354.11C211.06 355.33 210.71 356.11 209.7 356.41C210.83 356.72 211.26 357.62 211.26 358.89V359.89C211.312 360.253 211.279 360.622 211.165 360.971C211.051 361.319 210.859 361.636 210.603 361.898C210.347 362.16 210.034 362.359 209.688 362.481C209.343 362.603 208.974 362.644 208.61 362.6H206V351H208.54ZM208.23 355.91C209.23 355.91 209.79 355.58 209.79 354.37V353.7C209.79 352.7 209.44 352.17 208.51 352.17H207.24V355.91H208.23ZM208.61 361.41C209.56 361.41 209.98 360.91 209.98 359.83V358.83C209.98 357.54 209.47 357.11 208.36 357.11H207.24V361.43L208.61 361.41Z" fill="white"/>
<path d="M213.73 351V362.6H212.44V351H213.73Z" fill="white"/>
<path d="M216.72 362.6V352.19H214.59V351H220.13V352.17H218V362.6H216.72Z" fill="white"/>
<path d="M226.13 353.81V354.86H224.9V353.75C224.9 352.75 224.49 352.08 223.55 352.08C222.61 352.08 222.19 352.71 222.19 353.75V359.87C222.19 360.87 222.62 361.54 223.55 361.54C224.48 361.54 224.9 360.91 224.9 359.87V358.36H226.13V359.8C226.13 361.56 225.3 362.72 223.51 362.72C221.72 362.72 220.92 361.56 220.92 359.8V353.8C220.92 352.05 221.74 350.89 223.51 350.89C225.28 350.89 226.13 352.06 226.13 353.81Z" fill="white"/>
<path d="M227.21 353.81C227.21 352.04 228.08 350.9 229.85 350.9C231.62 350.9 232.52 352.04 232.52 353.81V359.81C232.52 361.57 231.64 362.73 229.85 362.73C228.06 362.73 227.21 361.57 227.21 359.81V353.81ZM228.48 359.87C228.48 360.93 228.93 361.54 229.85 361.54C230.77 361.54 231.23 360.93 231.23 359.87V353.75C231.23 352.75 230.8 352.08 229.85 352.08C228.9 352.08 228.48 352.71 228.48 353.75V359.87Z" fill="white"/>
<path d="M235 351V362.6H233.71V351H235Z" fill="white"/>
<path d="M237.5 362.6H236.34V351H238L240.68 359.37V351H241.83V362.6H240.49L237.49 353.24L237.5 362.6Z" fill="white"/>
<path d="M316 351.07C317.4 351.27 318 352.36 318 353.91V354.23H316.79V353.83C316.79 352.83 316.38 352.18 315.45 352.18C314.52 352.18 314.13 352.81 314.13 353.83C314.13 356.43 318.01 356.44 318.01 359.71C318.01 361.26 317.35 362.37 315.95 362.57V363.44H315V362.57C313.56 362.37 312.91 361.28 312.91 359.71V359H314.12V359.8C314.12 360.8 314.55 361.44 315.48 361.44C316.41 361.44 316.83 360.84 316.83 359.8C316.83 357.22 312.96 357.18 312.96 353.92C312.96 352.33 313.61 351.29 314.96 351.08V350.15H316V351.07Z" fill="white"/>
<path d="M327.14 353.83C327.14 357.32 323.22 358.58 323.21 361.24V361.43H327V362.6H321.92V361.6C321.92 357.86 325.84 357.13 325.84 353.87C325.84 352.68 325.45 352.05 324.49 352.05C323.53 352.05 323.13 352.73 323.13 353.75V354.75H321.92V353.81C321.92 352.04 322.73 350.81 324.52 350.81C326.31 350.81 327.14 352.06 327.14 353.83Z" fill="white"/>
<path d="M333.49 353.81V354.11C333.547 354.606 333.44 355.107 333.185 355.537C332.93 355.967 332.542 356.301 332.08 356.49C332.543 356.684 332.931 357.022 333.185 357.455C333.439 357.888 333.546 358.391 333.49 358.89V359.79C333.49 361.56 332.66 362.72 330.87 362.72C329.08 362.72 328.27 361.56 328.27 359.79V359H329.48V359.88C329.48 360.88 329.91 361.55 330.84 361.55C331.77 361.55 332.19 360.94 332.19 359.77V358.87C332.19 357.73 331.71 357.18 330.74 357.15H330V356H330.76C330.961 356.002 331.159 355.961 331.343 355.879C331.526 355.797 331.689 355.676 331.821 355.525C331.953 355.374 332.051 355.196 332.108 355.003C332.164 354.811 332.179 354.608 332.15 354.41V353.88C332.15 352.69 331.74 352.08 330.8 352.08C329.86 352.08 329.44 352.73 329.44 353.77V354.36H328.23V353.83C328.23 352.06 329.06 350.92 330.83 350.92C332.6 350.92 333.49 352 333.49 353.81Z" fill="white"/>
<path d="M335.31 362.6H334.83V361H336.07V362.49L335.43 364.06H334.9L335.31 362.6Z" fill="white"/>
<path d="M342.1 360.27V362.6H340.84V360.27H337.1V359.09L340.69 351.02H342.1V359.09H343V360.27H342.1ZM338.29 359.09H340.84V353.43L338.29 359.09Z" fill="white"/>
<path d="M349.33 353.76V354.13C349.395 354.616 349.302 355.11 349.064 355.539C348.826 355.967 348.457 356.308 348.01 356.51C348.462 356.725 348.834 357.078 349.072 357.519C349.309 357.959 349.4 358.464 349.33 358.96V359.82C349.33 361.61 348.4 362.72 346.6 362.72C344.8 362.72 343.87 361.61 343.87 359.82V359C343.8 358.502 343.893 357.995 344.134 357.553C344.376 357.112 344.753 356.76 345.21 356.55C344.758 356.354 344.382 356.015 344.14 355.585C343.898 355.156 343.803 354.659 343.87 354.17V353.8C343.87 353.442 343.941 353.087 344.078 352.755C344.215 352.424 344.416 352.123 344.67 351.87C344.923 351.616 345.224 351.415 345.555 351.278C345.886 351.141 346.242 351.07 346.6 351.07C346.959 351.07 347.314 351.141 347.645 351.278C347.976 351.415 348.277 351.616 348.53 351.87C348.784 352.123 348.985 352.424 349.122 352.755C349.259 353.087 349.33 353.442 349.33 353.8V353.76ZM345.14 353.76V354.32C345.14 355.45 345.69 355.94 346.6 355.94C347.51 355.94 348.06 355.45 348.06 354.32V353.76C348.06 352.57 347.51 352.02 346.6 352.02C345.69 352.02 345.14 352.61 345.14 353.8V353.76ZM345.14 358.76V359.76C345.14 360.95 345.67 361.51 346.6 361.51C347.53 361.51 348.04 360.95 348.06 359.76V358.76C348.06 357.64 347.56 357.09 346.6 357.09C345.64 357.09 345.14 357.69 345.14 358.81V358.76Z" fill="white"/>
<path d="M355.71 353.8V354H354.5V353.71C354.5 352.66 354.07 352.05 353.12 352.05C352.17 352.05 351.72 352.68 351.72 353.92V356.52C351.853 356.137 352.108 355.808 352.446 355.584C352.783 355.36 353.185 355.253 353.59 355.28C355.08 355.28 355.74 356.35 355.74 358.02V359.78C355.74 361.55 354.86 362.71 353.09 362.71C351.32 362.71 350.43 361.55 350.43 359.78V353.87C350.43 352.03 351.25 350.87 353.09 350.87C354.93 350.87 355.71 352 355.71 353.8ZM351.71 358.13V359.87C351.71 360.87 352.14 361.54 353.08 361.54C354.02 361.54 354.45 360.91 354.45 359.87V358.13C354.45 357.13 354.01 356.46 353.08 356.46C352.15 356.46 351.72 357.09 351.72 358.13H351.71Z" fill="white"/>
<path d="M358.19 361V362.6H357V361H358.19Z" fill="white"/>
<path d="M360.81 355.73C360.974 355.418 361.222 355.159 361.526 354.982C361.83 354.805 362.178 354.718 362.53 354.73C364.02 354.73 364.68 355.83 364.68 357.48V359.75C364.68 361.52 363.83 362.68 362.06 362.68C360.29 362.68 359.46 361.52 359.46 359.75V359H360.67V359.86C360.67 360.86 361.1 361.53 362.03 361.53C362.96 361.53 363.39 360.9 363.39 359.86V357.61C363.39 356.61 362.96 355.94 362.03 355.94C361.862 355.933 361.694 355.96 361.537 356.019C361.38 356.078 361.236 356.168 361.114 356.284C360.992 356.399 360.894 356.538 360.826 356.692C360.759 356.846 360.723 357.012 360.72 357.18V357.45H359.51L359.83 351.01H364.4V352.17H361L360.81 355.73Z" fill="white"/>
<path d="M368.29 353.12C367.8 353.412 367.249 353.583 366.68 353.62V352.56C367.14 352.572 367.589 352.426 367.954 352.145C368.318 351.865 368.574 351.467 368.68 351.02H369.57V362.6H368.3L368.29 353.12Z" fill="white"/>
<path d="M183.976 366.871C188.991 366.055 192.395 361.328 191.58 356.313C190.764 351.298 186.037 347.894 181.022 348.71C176.007 349.526 172.602 354.253 173.418 359.268C174.234 364.283 178.961 367.687 183.976 366.871Z" fill="#263238"/>
<path d="M322.59 412.7C324 412.9 324.64 413.99 324.64 415.54V415.86H323.44V415.46C323.44 414.46 323.02 413.81 322.1 413.81C321.18 413.81 320.77 414.44 320.77 415.46C320.77 418.06 324.66 418.08 324.66 421.34C324.66 422.89 324 424 322.59 424.2V425.08H321.53V424.2C320.09 424 319.45 422.91 319.45 421.34V420.62H320.66V421.42C320.66 422.42 321.09 423.06 322.01 423.06C322.93 423.06 323.37 422.46 323.37 421.42C323.37 418.84 319.5 418.8 319.5 415.54C319.5 413.95 320.14 412.91 321.5 412.7V411.77H322.56L322.59 412.7Z" fill="white"/>
<path d="M333.8 415.4V415.76C333.865 416.246 333.772 416.74 333.534 417.168C333.296 417.597 332.927 417.938 332.48 418.14C332.932 418.354 333.304 418.708 333.542 419.148C333.779 419.589 333.87 420.094 333.8 420.59V421.45C333.8 423.24 332.87 424.35 331.07 424.35C329.27 424.35 328.34 423.24 328.34 421.45V420.59C328.27 420.092 328.363 419.584 328.604 419.143C328.846 418.702 329.223 418.35 329.68 418.14C329.228 417.944 328.852 417.605 328.61 417.175C328.368 416.746 328.273 416.248 328.34 415.76V415.4C328.34 414.676 328.628 413.981 329.14 413.47C329.652 412.958 330.346 412.67 331.07 412.67C331.794 412.67 332.488 412.958 333 413.47C333.512 413.981 333.8 414.676 333.8 415.4ZM329.61 415.4V416C329.61 417.13 330.16 417.62 331.07 417.62C331.98 417.62 332.53 417.13 332.53 416V415.44C332.53 414.25 331.98 413.7 331.07 413.7C330.16 413.7 329.61 414.24 329.61 415.43V415.4ZM329.61 420.4V421.4C329.61 422.59 330.14 423.15 331.07 423.15C332 423.15 332.51 422.59 332.53 421.4V420.4C332.53 419.28 332.03 418.73 331.07 418.73C330.11 418.73 329.61 419.32 329.61 420.44V420.4Z" fill="white"/>
<path d="M335.54 424.23H335.06V422.63H336.3V424.12L335.66 425.69H335.13L335.54 424.23Z" fill="white"/>
<path d="M337.53 415.44C337.53 413.67 338.4 412.53 340.18 412.53C341.96 412.53 342.84 413.67 342.84 415.44V421.44C342.84 423.21 341.96 424.37 340.18 424.37C338.4 424.37 337.53 423.21 337.53 421.44V415.44ZM338.8 421.5C338.8 422.5 339.25 423.17 340.18 423.17C341.11 423.17 341.55 422.54 341.55 421.5V415.38C341.55 414.32 341.12 413.69 340.18 413.69C339.24 413.69 338.8 414.32 338.8 415.38V421.5Z" fill="white"/>
<path d="M344 415.44C344 413.67 344.88 412.53 346.65 412.53C348.42 412.53 349.31 413.67 349.31 415.44V421.44C349.31 423.21 348.43 424.37 346.65 424.37C344.87 424.37 344 423.21 344 421.44V415.44ZM345.27 421.5C345.27 422.5 345.72 423.17 346.65 423.17C347.58 423.17 348.02 422.54 348.02 421.5V415.38C348.02 414.32 347.59 413.69 346.65 413.69C345.71 413.69 345.27 414.32 345.27 415.38V421.5Z" fill="white"/>
<path d="M350.41 415.44C350.41 413.67 351.29 412.53 353.06 412.53C354.83 412.53 355.72 413.67 355.72 415.44V421.44C355.72 423.21 354.84 424.37 353.06 424.37C351.28 424.37 350.41 423.21 350.41 421.44V415.44ZM351.68 421.5C351.68 422.5 352.13 423.17 353.06 423.17C353.99 423.17 354.43 422.54 354.43 421.5V415.38C354.43 414.32 354 413.69 353.06 413.69C352.12 413.69 351.68 414.32 351.68 415.38V421.5Z" fill="white"/>
<path d="M358.19 422.63V424.23H357V422.63H358.19Z" fill="white"/>
<path d="M364.73 415.46C364.73 418.95 360.81 420.21 360.79 422.87V423.06H364.6V424.23H359.51V423.23C359.51 419.49 363.44 418.76 363.44 415.5C363.44 414.31 363.04 413.68 362.08 413.68C361.12 413.68 360.72 414.36 360.72 415.39V416.39H359.51V415.45C359.51 413.68 360.33 412.45 362.11 412.45C363.89 412.45 364.73 413.69 364.73 415.46Z" fill="white"/>
<path d="M368.29 414.75C367.8 415.042 367.249 415.213 366.68 415.25V414.19C367.14 414.202 367.589 414.056 367.954 413.775C368.318 413.495 368.574 413.097 368.68 412.65H369.57V424.23H368.3L368.29 414.75Z" fill="white"/>
<path d="M182.52 428.6C187.601 428.6 191.72 424.481 191.72 419.4C191.72 414.319 187.601 410.2 182.52 410.2C177.439 410.2 173.32 414.319 173.32 419.4C173.32 424.481 177.439 428.6 182.52 428.6Z" fill="#919191"/>
<path d="M207.52 413C209.36 413 210.13 413.94 210.13 415.68V416.68C210.209 417.188 210.105 417.707 209.838 418.147C209.571 418.586 209.157 418.916 208.67 419.08C209.74 419.4 210.14 420.27 210.14 421.52V423.34C210.102 423.819 210.184 424.301 210.38 424.74H209.06C208.873 424.291 208.797 423.804 208.84 423.32V421.49C208.84 420.17 208.22 419.75 207.14 419.75H206.22V424.75H204.92V413H207.52ZM207.19 418.51C208.19 418.51 208.84 418.18 208.84 416.91V415.79C208.84 414.74 208.46 414.19 207.49 414.19H206.22V418.51H207.19Z" fill="white"/>
<path d="M212.8 413V424.69H211.5V413H212.8Z" fill="white"/>
<path d="M216.69 413C218.53 413 219.31 414.09 219.31 415.86V417.26C219.31 419.11 218.44 420.08 216.59 420.08H215.44V424.69H214.14V413H216.69ZM216.59 418.91C217.59 418.91 218.03 418.46 218.03 417.35V415.79C218.03 414.72 217.64 414.19 216.69 414.19H215.44V418.91H216.59Z" fill="white"/>
<path d="M222.89 413C224.72 413 225.51 414.09 225.51 415.86V417.26C225.51 419.11 224.64 420.08 222.79 420.08H221.63V424.69H220.33V413H222.89ZM222.79 418.91C223.79 418.91 224.22 418.46 224.22 417.35V415.79C224.22 414.72 223.84 414.19 222.89 414.19H221.63V418.91H222.79Z" fill="white"/>
<path d="M226.53 424.66V413H227.83V423.5H231.17V424.69L226.53 424.66Z" fill="white"/>
<path d="M236.31 418.15V419.32H233.46V423.47H237V424.66H232.2V413H237V414.19H233.5V418.19L236.31 418.15Z" fill="white"/>
<path d="M410 460H480" stroke="#263238" stroke-linecap="round" stroke-linejoin="round"/>
<path d="M24 460H400" stroke="#263238" stroke-linecap="round" stroke-linejoin="round"/>
<path opacity="0.2" d="M101.5 480C133.256 480 159 475.523 159 470C159 464.477 133.256 460 101.5 460C69.7436 460 44 464.477 44 470C44 475.523 69.7436 480 101.5 480Z" fill="black"/>
<path d="M60 193.9C59.5712 195.778 59.5168 197.721 59.84 199.62C60.41 202.46 58.74 210.54 58.74 210.54L52.68 248.31L45.38 247.65C45.38 247.65 46.2 249.47 44.69 252.09C43.18 254.71 33.69 259.3 33.69 259.3C33.69 259.3 42.69 268.23 47.14 270.74C51.59 273.25 56.01 273.18 58.83 271.05C61.65 268.92 66.44 260.79 66.44 260.79C66.44 260.79 68.8 219.45 67.6 210.64C66.8867 205.314 65.4815 200.103 63.42 195.14C63.13 194.36 60 193.9 60 193.9Z" fill="white" stroke="#263238" stroke-linecap="round" stroke-linejoin="round"/>
<path d="M76.74 443.16C76.74 443.16 72.21 451.03 69.39 452.9C66.57 454.77 60.93 459.03 57.57 459.9C54.21 460.77 51.39 462.61 53.76 464.64C56.13 466.67 57.7 467.17 66.28 467.53C74.86 467.89 78.18 465.24 84.15 465.13C90.12 465.02 95.87 466.73 97.38 463.85C98.89 460.97 96.07 449 96.07 449C96.07 449 83.47 441.48 76.74 443.16Z" fill="white" stroke="#263238" stroke-linecap="round" stroke-linejoin="round"/>
<path d="M97.38 463.82C97.7904 462.64 97.9339 461.383 97.8 460.14C94.2 462.07 89.26 461 83.4 461C76.99 461 75.89 464.3 64.73 464.66C56.43 464.94 53.9 463.19 53.14 462.27C52.7 462.98 52.8 463.78 53.76 464.61C56.14 466.61 57.7 467.14 66.28 467.5C74.86 467.86 78.18 465.21 84.15 465.1C90.12 464.99 95.87 466.7 97.38 463.82Z" fill="white" stroke="#263238" stroke-linecap="round" stroke-linejoin="round"/>
<path d="M114.06 452.87C113.564 455.625 112.831 458.331 111.87 460.96C110.62 463.84 107.11 470.96 104.81 473.03C102.51 475.1 100.72 479.96 104.7 480.83C117.07 483.52 123.1 478.67 126.7 476.83C130.3 474.99 130.48 470.53 130.7 468.45C130.92 466.37 133.52 466.58 132.91 461.4C132.3 456.22 131.91 450.77 131.91 450.77C131.91 450.77 118.77 454.86 114.06 452.87Z" fill="white" stroke="#263238" stroke-linecap="round" stroke-linejoin="round"/>
<path d="M126.41 474.18C123.66 476.56 117.62 478.76 111.22 478.76C106.34 478.76 103.59 477.38 102.55 476.76C102.04 478.59 102.43 480.37 104.7 480.87C117.07 483.56 123.1 478.71 126.7 476.87C130.3 475.03 130.48 470.57 130.7 468.49C130.92 466.41 133.52 466.62 132.91 461.44C132.85 460.98 132.8 460.53 132.75 460.08C132.06 461.29 131.23 462.78 130.62 464.01C129.34 466.49 129.15 471.8 126.41 474.18Z" fill="white" stroke="#263238" stroke-linecap="round" stroke-linejoin="round"/>
<path d="M67.4 272.19C67.4 272.19 70.06 332.65 70.4 339.92C70.74 347.19 73.89 388.92 74.71 391.26C75.53 393.6 78.62 435.07 78.64 436.11C78.66 437.15 78.7 438.97 78.7 438.97C78.7 438.97 75.6 440.06 75.61 440.84C75.62 441.62 75.16 444.49 75.16 444.49C75.16 444.49 75.74 447.59 83.06 450.32C90.38 453.05 98.13 450.82 98.13 450.82C98.13 450.82 98.32 446.92 98.29 445.36C98.26 443.8 97.37 437.59 97.35 436.81C97.33 436.03 100.96 406.88 100.73 394.16C100.5 381.44 99.1 372.9 99 366.93C98.9 360.96 98.89 318.11 98.89 318.11L101.79 320.39C101.79 320.39 108.17 386 109.07 393C109.97 400 114.58 438.87 114.62 441.2C114.66 443.53 114.46 446.66 114.46 446.66L111.65 449.31L111.74 453.98C111.74 453.98 116.18 455.72 121.67 457.43C127.16 459.14 132.52 454.12 132.52 454.12C132.906 452.76 133.141 451.361 133.22 449.95C133.22 448.4 133.11 443.72 133.11 443.72C133.11 443.72 136.93 411.19 136.25 402.37C135.57 393.55 133.51 365.81 133.51 365.81L137.68 309.64L135.15 270.47C135.15 270.47 124.24 270.41 107.37 270.72C90.5 271.03 67.53 265.21 67.53 265.21L67.4 272.19Z" fill="#263238" stroke="#263238" stroke-linecap="round" stroke-linejoin="round"/>
<path d="M80.57 281.16C80.57 281.16 92.41 289.26 117.22 282.83L117.13 278.16C109.523 278.871 101.861 278.75 94.28 277.8C83.34 276.18 78.65 275.22 78.65 275.22L80.57 281.16Z" fill="#828282" stroke="#263238" stroke-linecap="round" stroke-linejoin="round"/>
<path d="M99.6539 280.119L91.7409 279.6L91.4008 284.789L99.3138 285.307L99.6539 280.119Z" fill="white" stroke="#263238" stroke-linecap="round" stroke-linejoin="round"/>
<path d="M83.36 277.48C83.36 277.48 88.36 283.62 118.97 278.91L121 179.55C121 179.55 102.2 173.66 100.89 173.42C99.58 173.18 79.58 186.53 79.58 186.53L77.58 276.02L83.36 277.48Z" fill="#A2A2A2" stroke="#263238" stroke-linecap="round" stroke-linejoin="round"/>
<path d="M92.87 185.61L96.39 192.04L88.14 255.72L95.41 269.87L103.21 256.48L99.14 191.88L106.03 182.94L96.84 180.11L92.87 185.61Z" fill="#737373" stroke="#263238" stroke-linecap="round" stroke-linejoin="round"/>
<path d="M96.39 192.04L95.95 195.43L99.24 193.43L99.14 191.88L106.03 182.94L104.04 182.32L94.3 188.23L96.39 192.04Z" fill="#263238"/>
<path d="M102.61 246.95L88.23 254.99L88.14 255.72L91.07 261.43L103.1 254.71L102.61 246.95Z" fill="#263238"/>
<path d="M100.39 211.76L99.89 203.86L94.42 207.18L93.27 216.07L100.39 211.76Z" fill="#263238"/>
<path d="M90.34 238.7L101.63 231.32L101.12 223.27L91.53 229.55L90.34 238.7Z" fill="#263238"/>
<path d="M88.36 182.22V209.75C88.36 209.75 86.61 256.26 86.78 265.61C86.95 274.96 86.43 289.25 84.72 295.25C83.01 301.25 72.27 310.25 69.19 312.15C66.11 314.05 60.67 315.15 60.67 315.15C60.67 315.15 64.67 278.98 64.77 268.85C64.87 258.72 63.48 212.52 63.38 207.06C63.28 201.6 58.47 195.23 60 192.6C61.53 189.97 77 183.47 78.27 183.44C79.54 183.41 87.54 179.12 87.54 179.12L88.36 182.22Z" fill="white" stroke="#263238" stroke-linecap="round" stroke-linejoin="round"/>
<path d="M87.52 179.12C84.688 180.68 81.7738 182.085 78.79 183.33L77.13 193.07L81.9 198.44L77.59 204.23C77.59 204.23 79.95 219.51 82.41 226.23C83.73 229.83 85.7 236.42 87.25 241.74C87.72 226.38 88.34 209.74 88.34 209.74V182.21L87.52 179.12Z" fill="white" stroke="#263238" stroke-linecap="round" stroke-linejoin="round"/>
<path d="M109.94 166.49L116.78 174.17C116.78 174.17 116.64 180.67 112.03 184.39C109.51 186.455 106.835 188.324 104.03 189.98L98.7 182.55L95.2 182.28L92.34 189.42L89.34 181.94C89.34 181.94 86.62 174.94 92.25 170.46C97.88 165.98 102.02 165.09 103.58 165.06C105.14 165.03 109.94 166.49 109.94 166.49Z" fill="#A2A2A2" stroke="#263238" stroke-linecap="round" stroke-linejoin="round"/>
<path d="M71.53 147.77C71.53 147.77 72.53 159 73.53 160.77C74.53 162.54 76.44 166.08 76.44 166.08C76.44 166.08 76.54 171.7 78.37 173.71C80.2 175.72 84.21 185.61 87.53 185.55C90.85 185.49 95.13 182.09 95.13 182.09L96.71 184.88C98.2216 183.156 99.896 181.582 101.71 180.18C103.71 178.87 108.45 171.63 109.18 169.57C109.581 168.588 109.821 167.548 109.89 166.49C109.89 166.49 109.48 157.81 108.64 154C107.8 150.19 107.64 142.52 103.97 135.94C100.3 129.36 89.3 130.08 83.21 132.49C77.12 134.9 70.89 140.89 70.69 144C70.49 147.11 71.53 147.77 71.53 147.77Z" fill="#BABABA" stroke="#263238" stroke-linecap="round" stroke-linejoin="round"/>
<path d="M92.44 145.61C94.77 147.35 92.53 150.46 94.84 150.93C96.84 151.33 103.58 148.83 107.2 144.88C106.599 141.756 105.527 138.742 104.02 135.94C100.32 129.37 89.35 130.08 83.26 132.49C77.17 134.9 70.89 140.89 70.69 144C70.49 147.11 71.53 147.81 71.53 147.81C74.1155 148.535 76.7849 148.919 79.47 148.95C83.3 148.84 90.11 143.86 92.44 145.61Z" fill="#263238" stroke="#263238" stroke-linecap="round" stroke-linejoin="round"/>
<path d="M102.37 157.69C102.37 157.69 102.02 152.33 105.08 152.27C108.14 152.21 108.76 158.08 107.79 160.91C107.545 161.703 107.087 162.414 106.467 162.966C105.846 163.518 105.086 163.889 104.27 164.04C104.27 164.04 104.85 167.86 104.12 169.92" stroke="#263238" stroke-linecap="round" stroke-linejoin="round"/>
<path d="M94 172.41C91.43 171.41 87.35 172.02 87.35 172.02C87.11 173.02 85.08 173.85 85.08 173.85L80.23 173.68C80.23 173.68 80.18 174.84 80.14 176.36C82.2 179.99 85.14 185.6 87.6 185.55C90.92 185.49 95.2 182.09 95.2 182.09L95.3 182.28C95.9934 181.549 96.8133 180.949 97.72 180.51C98.69 180.24 96.52 173.38 94 172.41Z" fill="#263238" stroke="#263238" stroke-linecap="round" stroke-linejoin="round"/>
<path d="M83.05 177.46C83.05 177.46 89.19 177.86 91.69 174.75" stroke="#808080" stroke-linecap="round" stroke-linejoin="round"/>
<path d="M75.87 163.35C78.21 162.02 80.52 164.47 80.52 164.47C80.52 164.47 79.9 172.41 80.18 173.68C80.46 174.95 84.27 173.86 85.03 173.85C85.79 173.84 87.32 173 87.3 172L87.54 171" fill="#BABABA"/>
<path d="M75.87 163.35C78.21 162.02 80.52 164.47 80.52 164.47C80.52 164.47 79.9 172.41 80.18 173.68C80.46 174.95 84.27 173.86 85.03 173.85C85.79 173.84 87.32 173 87.3 172L87.54 171" stroke="#263238" stroke-linecap="round" stroke-linejoin="round"/>
<path d="M88.77 165.48C88.97 166.22 88.77 166.93 88.22 167.06C87.67 167.19 87.16 166.7 87 166C86.84 165.3 87.05 164.56 87.55 164.43C88.05 164.3 88.58 164.75 88.77 165.48Z" fill="#263238"/>
<path d="M79.65 165.82C79.84 166.56 79.59 167.27 79.09 167.4C78.59 167.53 78 167 77.84 166.3C77.68 165.6 77.84 164.86 78.39 164.73C78.94 164.6 79.45 165.09 79.65 165.82Z" fill="#263238"/>
<path d="M83.92 162.77C83.92 162.77 85.69 159.84 91.71 160.38" stroke="#263238" stroke-linecap="round" stroke-linejoin="round"/>
<path d="M116.78 174.17C116.78 174.17 112.38 189.31 108.38 211.98C104.38 234.65 105.59 287.08 106.23 293.56C106.87 300.04 111.62 304.89 115.83 307.67C120.04 310.45 137.83 315.06 144.27 314.94C144.27 314.94 141.44 259.42 141.38 255.79C141.32 252.16 151.67 193.79 151.62 190.94C151.57 188.09 127.24 178.4 124.1 177.15C120.96 175.9 116.78 174.17 116.78 174.17Z" fill="white" stroke="#263238" stroke-linecap="round" stroke-linejoin="round"/>
<path d="M116.94 197.28L125.17 192.72L124.1 177.15C120.97 175.91 116.78 174.15 116.78 174.15C116.78 174.15 112.38 189.29 108.38 211.96C106.93 220.13 106.17 232.16 105.81 244.52C105.81 243.52 123.51 203.68 123.51 203.68L116.94 197.28Z" fill="white" stroke="#263238" stroke-linecap="round" stroke-linejoin="round"/>
<path d="M33.67 259.3C33.67 259.3 33.67 257.38 37.24 251.6C40.81 245.82 45.39 247.65 45.39 247.65C45.39 247.65 48.84 251.24 43.99 255.48C41.1453 257.993 37.4656 259.356 33.67 259.3Z" fill="#263238" stroke="#263238" stroke-linecap="round" stroke-linejoin="round"/>
<path d="M38.9 258C40.42 257 46.66 255.81 46.4 249.38C45.94 248.59 45.4 247.68 44.87 246.85C43.53 244.85 42.73 243.26 42.73 243.26C42.73 243.26 36.25 240.42 34.73 243.56C35.2665 246.995 35.9977 250.398 36.92 253.75C37.4388 255.228 38.102 256.652 38.9 258Z" fill="#BABABA" stroke="#263238" stroke-linecap="round" stroke-linejoin="round"/>
<path d="M37.29 229.89L30.66 207.94L44.69 208.46L51.12 233.8L37.29 229.89Z" fill="#263238" stroke="#263238" stroke-linecap="round" stroke-linejoin="round"/>
<path d="M38.7 250.64C39.9586 250.339 41.1747 249.882 42.32 249.28C43.6 248.48 44.57 244.56 44.57 244.56C46.5391 243.945 48.4392 243.127 50.24 242.12C53.06 240.51 55.64 239.12 55.35 237.87C55.06 236.62 52.75 237.66 52.75 237.66L53.48 235.05L52.92 232.46C52.92 232.46 52.92 231.46 52.87 230.13C52.82 228.8 51 227.31 51 227.31C51.1662 226.715 51.2437 226.098 51.23 225.48C51.23 224.48 50.67 223.42 49.64 223.48C48.61 223.54 36.47 227.61 36.47 227.61L34.8 221.41C34.8 221.41 33.12 228.97 33.19 232.86C33.26 236.75 36 248.16 36 248.94" fill="#BABABA"/>
<path d="M38.7 250.64C39.9586 250.339 41.1747 249.882 42.32 249.28C43.6 248.48 44.57 244.56 44.57 244.56C46.5391 243.945 48.4392 243.127 50.24 242.12C53.06 240.51 55.64 239.12 55.35 237.87C55.06 236.62 52.75 237.66 52.75 237.66L53.48 235.05L52.92 232.46C52.92 232.46 52.92 231.46 52.87 230.13C52.82 228.8 51 227.31 51 227.31C51.1662 226.715 51.2437 226.098 51.23 225.48C51.23 224.48 50.67 223.42 49.64 223.48C48.61 223.54 36.47 227.61 36.47 227.61L34.8 221.41C34.8 221.41 33.12 228.97 33.19 232.86C33.26 236.75 36 248.16 36 248.94" stroke="#263238" stroke-linecap="round" stroke-linejoin="round"/>
<path d="M51 227.31L40.43 231.13" stroke="#263238" stroke-linecap="round" stroke-linejoin="round"/>
<path d="M52.92 232.46L41.56 236.05" stroke="#263238" stroke-linecap="round" stroke-linejoin="round"/>
<path d="M43.46 240.95L52.75 237.66" stroke="#263238" stroke-linecap="round" stroke-linejoin="round"/>
<path d="M52.69 248.31C52.69 248.31 56.87 249.79 58.22 252.88" stroke="#263238" stroke-linecap="round" stroke-linejoin="round"/>
<path d="M146.92 293.81C146.92 293.81 140.17 300.81 140.2 302.53C140.202 305.41 140.008 308.286 139.62 311.14C139.19 314.14 137 315.61 138.5 316.81C139.005 317.145 139.59 317.338 140.195 317.37C140.8 317.401 141.403 317.27 141.94 316.99C141.94 316.99 138.77 317.99 139.29 319.99C139.81 321.99 147.43 321.81 147.43 321.81L155.19 316.02C156.89 314.76 156.51 307.39 156.44 303.46C156.37 299.53 156.31 296.83 156.31 296.83L146.92 293.81Z" fill="#BABABA" stroke="#263238" stroke-linecap="round" stroke-linejoin="round"/>
<path d="M141.94 316.99L143.73 311.87L144.14 306.99" stroke="#263238" stroke-linecap="round" stroke-linejoin="round"/>
<path d="M141.74 204.36C141.74 204.36 137.93 223.65 137.98 226.24C138.03 228.83 146.37 259.33 146.37 259.33L142.37 296.8C144.672 297.924 147.032 298.925 149.44 299.8C151.26 300.28 158.32 302.49 158.32 302.49C158.32 302.49 165.51 269.9 166.75 266.76C167.99 263.62 166.48 251.44 166.44 249.63C166.4 247.82 155.62 196.85 155.6 196.07C155.58 195.29 154.7 189.33 153.13 188.58C151.56 187.83 145.57 186.9 145.57 186.9" fill="white"/>
<path d="M141.74 204.36C141.74 204.36 137.93 223.65 137.98 226.24C138.03 228.83 146.37 259.33 146.37 259.33L142.37 296.8C144.672 297.924 147.032 298.925 149.44 299.8C151.26 300.28 158.32 302.49 158.32 302.49C158.32 302.49 165.51 269.9 166.75 266.76C167.99 263.62 166.48 251.44 166.44 249.63C166.4 247.82 155.62 196.85 155.6 196.07C155.58 195.29 154.7 189.33 153.13 188.58C151.56 187.83 145.57 186.9 145.57 186.9" stroke="#263238" stroke-linecap="round" stroke-linejoin="round"/>
</svg>
